<?xml version="1.0" encoding="utf-8"?>
<!-- Generator: Adobe Illustrator 25.0.0, SVG Export Plug-In . SVG Version: 6.00 Build 0)  -->
<svg version="1.1" xmlns="http://www.w3.org/2000/svg" xmlns:xlink="http://www.w3.org/1999/xlink" x="0px" y="0px"
	 viewBox="0 0 3556 2000" style="enable-background:new 0 0 3556 2000;" xml:space="preserve">
<style type="text/css">
	.st0{fill:url(#SVGID_1_);}
	.st1{opacity:8.000000e-02;clip-path:url(#SVGID_3_);fill-rule:evenodd;clip-rule:evenodd;fill:#FCDD89;enable-background:new    ;}
	.st2{clip-path:url(#SVGID_3_);}
	.st3{clip-path:url(#SVGID_3_);fill-rule:evenodd;clip-rule:evenodd;fill:#DF4B6A;}
	.st4{clip-path:url(#SVGID_3_);fill-rule:evenodd;clip-rule:evenodd;fill:#70C3EF;}
	.st5{clip-path:url(#SVGID_3_);fill-rule:evenodd;clip-rule:evenodd;fill:#FDE88E;}
</style>
<g id="Layer_2">
	<linearGradient id="SVGID_1_" gradientUnits="userSpaceOnUse" x1="0" y1="1000" x2="3556" y2="1000">
		<stop  offset="0" style="stop-color:#BC91AA"/>
		<stop  offset="1" style="stop-color:#1875FF"/>
	</linearGradient>
	<rect y="0" class="st0" width="3556" height="2000"/>
</g>
<g id="Design">
	<g>
		<defs>
			<rect id="SVGID_2_" x="0" y="0" width="3556" height="2000"/>
		</defs>
		<clipPath id="SVGID_3_">
			<use xlink:href="#SVGID_2_"  style="overflow:visible;"/>
		</clipPath>
		<path id="Shape" class="st1" d="M348.2,292.4c-159.5,14.1-319.2,52.7-477.7,117l6.7,6.3c157.4-64,316.1-102.4,474.6-116.4
			c185.4-16.4,370.6,0.5,553.2,48.6c359.1,94.7,595.1,270,807.8,428c226.8,168.4,426.1,316.4,706.9,334.7
			c32.3,2.2,64.7,1.9,96.9-0.9c189.2-16.8,311.4-120.7,426-218.2c106.8-90.8,213.1-181.3,357.4-194.1c27.7-2.4,55.5-2,83.1,1.2
			c142.6,16.2,214.9,121.6,295.4,239c81.2,118.5,169.4,247.1,336.7,282.3c9.5,2,19.2,3.4,29,4c8.6,0.6,17.2,0.5,25.8-0.3
			c24.5-2.1,48.1-10.2,68.7-23.7l-1-3.2c-20.2,13.2-43.3,21.1-67.3,23.1c-18.1,1.5-36.4,0.2-54.2-3.7
			c-166.2-35.1-253.9-163.2-334.8-281.3c-80.9-118.1-153.5-224.2-297.7-240.7c-28-3.3-56.3-3.7-84.4-1.3
			c-145.4,12.9-252.3,103.7-359.7,195c-118.7,100.9-235.8,200.4-420.3,216.7c-32.8,2.8-65.8,3.1-98.7,0.8
			c-278.9-18.3-477.3-166-703-333.8c-213.1-158.5-449.5-334.4-810.3-429.9C722.9,292.9,535.7,275.8,348.2,292.4 M347.9,247.5
			c-156.6,13.9-313.4,51.4-469,113.8l6.7,6.4c154.5-62.1,310.4-99.4,466-113.2c188-16.7,375.7,1.1,560.8,51
			c358.7,96.7,594.5,273.5,807,432.8c226.5,169.8,425.6,319,706.2,338.8c33.3,2.4,66.6,2.2,99.9-0.6
			c187.3-16.6,308.7-119.4,422.6-215.9c106.2-89.9,211.9-179.5,355.1-192.1c28.3-2.4,56.8-1.9,85.1,1.5
			c142.5,17,214.6,122.9,295.1,240.8c81.2,119.1,169.2,248.2,336.4,284.4c9.5,2.1,19.2,3.5,28.9,4.2c8.9,0.6,17.8,0.6,26.6-0.2
			c24.2-2.1,47.5-10,67.8-23.2l-1-3.2c-19.9,12.9-42.8,20.7-66.4,22.7c-17.3,1.5-35.7,0.2-54.9-3.9
			c-166.1-36.1-253.7-164.8-334.4-283.4c-80.8-118.7-153.3-225.2-297.4-242.5c-28.7-3.5-57.6-4.1-86.4-1.6
			C3158.1,676.7,3051.8,766.6,2945,857c-118,99.8-234.3,198.2-417,214.4c-33.8,2.9-67.8,3.1-101.6,0.6
			c-278.6-19.9-476.8-168.7-702.2-338c-212.8-159.8-449-337.2-809.4-434.7C727.8,248.7,538,230.7,347.9,247.5 M347.6,202.6
			C193.9,216.2,40,252.7-112.8,313.2l6.7,6.4c151.7-60.3,304.7-96.6,457.5-110.1c190.5-16.9,380.8,1.7,568.4,53.4
			c358.4,98.8,593.9,277,806.2,437.5c226.3,171.2,425.2,321.7,705.5,343c34.2,2.7,68.6,2.6,102.8-0.4
			c185.4-16.4,306-118.1,419.2-213.5c105.6-89,210.8-177.6,352.8-190.2c29-2.5,58.1-1.9,87,1.8c142.4,17.8,214.4,124.2,294.7,242.7
			c81.1,119.6,169,249.4,336,286.5c9.5,2.1,19.2,3.6,28.9,4.3c9.1,0.7,18.3,0.6,27.4-0.1c23.8-2,46.8-9.9,66.9-22.8l-1-3.2
			c-19.7,12.7-42.2,20.3-65.6,22.3c-17.6,1.5-36.1,0.2-55.7-4.2c-165.9-37-253.4-166.3-334-285.5
			c-80.7-119.2-153.1-226.2-297.1-244.4c-29.3-3.8-58.9-4.4-88.4-1.9c-143.1,12.7-248.8,101.7-355,191.1
			c-117.2,98.7-232.8,196-413.6,212.1c-34.8,3-69.7,3.1-104.5,0.3c-278.4-21.4-476.3-171.5-701.5-342.1
			c-212.6-161.1-448.5-339.9-808.6-439.5C732.7,204.4,540.3,185.6,347.6,202.6 M347.4,157.7C196.5,171,45.5,206.5-104.4,265.2
			l6.7,6.5c148.9-58.4,299-93.7,449-107c193.1-17.1,385.9,2.3,575.9,55.8c358,100.8,593.3,280.5,805.3,442.3
			c226,172.6,424.7,324.3,704.7,347.1c35.2,3,70.5,3,105.6-0.1c183.6-16.3,303.4-116.8,415.9-211.2
			c105-88.1,209.6-175.8,350.4-188.3c29.6-2.6,59.4-1.8,88.9,2.1c142.2,18.6,214.2,125.4,294.4,244.5
			c81,120.2,168.8,250.5,335.6,288.6c9.5,2.2,19.2,3.7,28.9,4.5c9.4,0.8,18.8,0.8,28.2-0.1c23.5-2,46.2-9.7,66.1-22.4l-1-3.2
			c-19.5,12.4-41.7,20-64.7,21.9c-17.8,1.6-36.6,0.1-56.4-4.4c-165.7-37.9-253.1-167.8-333.7-287.5
			c-80.6-119.8-153-227.3-296.8-246.2c-29.9-4-60.2-4.8-90.3-2.2c-141.9,12.6-247.1,100.7-352.7,189.2
			c-116.5,97.6-231.4,193.9-410.3,209.8c-35.7,3-71.6,3-107.3,0c-278.1-23-475.9-174.2-700.8-346.3
			c-212.4-162.4-448.1-342.7-807.8-444.3C737.5,160.1,542.6,140.4,347.4,157.7 M347.2,112.7C199.2,125.8,51,160.3-96.1,217.1
			l6.7,6.5c146.1-56.6,293.4-91,440.5-104c195.6-17.3,391,2.9,583.4,58.3c357.7,102.9,592.7,284,804.5,447.1
			c225.8,174,424.2,326.9,704,351.3c36.1,3.3,72.4,3.4,108.5,0.3c181.7-16.1,300.8-115.5,412.6-208.9
			c104.4-87.2,208.4-174,348.2-186.4c30.3-2.6,60.7-1.8,90.8,2.4c142.1,19.4,214,126.7,294.1,246.3
			c80.9,120.7,168.6,251.7,335.3,290.7c9.5,2.2,19.1,3.8,28.9,4.7c9.6,0.8,19.3,0.9,29,0c23.2-2,45.6-9.5,65.2-22l-1-3.2
			c-19.2,12.2-41.1,19.6-63.9,21.5c-18,1.6-37.1,0-57.2-4.7c-165.6-38.9-252.9-169.4-333.3-289.6
			c-80.5-120.3-152.8-228.3-296.5-248.1c-30.5-4.3-61.5-5.1-92.2-2.5c-140.8,12.5-245.3,99.7-350.4,187.3
			c-115.8,96.6-229.9,191.8-407,207.5c-36.7,3.1-73.5,3-110.2-0.4c-277.8-24.5-475.4-177-700.1-350.4
			c-212.1-163.7-447.6-345.5-806.9-449.1C742.4,115.8,544.9,95.2,347.2,112.7 M347,67.7C201.8,80.5,56.5,114-87.8,169.1l6.7,6.5
			c143.3-54.9,287.7-88.2,432-101c198.1-17.5,396,3.6,590.9,60.8c357.3,104.9,592.1,287.4,803.7,451.9
			c225.5,175.4,423.8,329.5,703.3,355.5c37,3.6,74.3,3.8,111.3,0.6c179.9-15.9,298.2-114.2,409.3-206.6
			c103.8-86.3,207.3-172.2,345.9-184.5c30.9-2.7,62-1.7,92.7,2.7c141.9,20.2,213.8,128,293.8,248.2
			c80.8,121.3,168.4,252.8,334.9,292.8c9.5,2.3,19.1,3.9,28.8,4.8c9.9,0.9,19.9,1,29.8,0.1c22.9-1.9,44.9-9.4,64.3-21.6l-1-3.2
			c-19,12-40.6,19.2-63,21.1c-18.2,1.6-37.5,0-57.9-4.9c-165.4-39.8-252.6-170.9-332.9-291.7c-80.4-120.9-152.6-229.4-296.1-249.9
			c-31.2-4.6-62.8-5.5-94.1-2.8c-139.6,12.4-243.6,98.7-348.1,185.4c-115,95.5-228.5,189.7-403.8,205.2c-37.6,3.2-75.4,2.9-113-0.7
			c-277.6-26-474.9-179.7-699.4-354.5c-211.9-165-447.1-348.2-806.1-453.9C747.4,71.4,547.3,49.9,347,67.7 M346.9,22.6
			C204.5,35.2,62.1,67.7-79.4,121.1l6.6,6.6C67.8,74.5,209.4,42.1,350.9,29.6c200.6-17.8,401,4.3,598.3,63.4
			c357,107,591.5,290.9,802.8,456.7c225.3,176.8,423.3,332.1,702.6,359.6c37.9,3.9,76.1,4.2,114.1,1
			c178.1-15.8,295.6-113,406.1-204.3c103.3-85.4,206.1-170.5,343.6-182.6c31.5-2.7,63.3-1.7,94.6,3.1
			c141.8,21,213.5,129.3,293.5,250c80.7,121.8,168.2,254,334.5,294.9c9.5,2.4,19.1,4,28.8,5c10.2,1,20.4,1.1,30.5,0.2
			c22.5-1.9,44.3-9.2,63.5-21.2l-1-3.2c-18.8,11.8-40.1,18.9-62.2,20.7c-18.4,1.6-38-0.1-58.6-5.2
			c-165.3-40.8-252.3-172.4-332.6-293.8c-80.3-121.5-152.4-230.5-295.8-251.8c-31.8-4.9-64-5.9-96.1-3.2
			c-138.5,12.3-241.9,97.7-345.8,183.5c-114.3,94.4-227.1,187.6-400.6,203c-35.8,3.2-74.2,3-115.7-1.1
			c-277.3-27.6-474.4-182.5-698.7-358.7c-211.7-166.3-446.6-351-805.2-458.7C752.2,27,549.6,4.6,346.9,22.6 M346.8-22.6
			C207.2-10.2,67.6,21.3-71.1,73l6.6,6.6C73.4,28.2,212.1-3.2,350.9-15.5c203-18,406,5,605.7,66.1c356.6,109,590.9,294.4,802,461.5
			c225.1,178.2,422.9,334.7,701.8,363.8c38.8,4.2,78,4.6,116.9,1.3c176.3-15.6,293.1-111.7,402.8-202
			c102.7-84.5,205-168.7,341.4-180.8c32.2-2.8,64.6-1.6,96.5,3.4c141.7,21.8,213.3,130.6,293.1,251.8
			c80.6,122.4,168,255.2,334.2,297c9.5,2.4,19.1,4.1,28.8,5.1c10.4,1.1,20.9,1.2,31.3,0.3c22.2-1.9,43.7-9,62.6-20.8l-1-3.2
			c-18.6,11.5-39.6,18.5-61.3,20.3c-18.7,1.7-38.4-0.2-59.4-5.4c-165.1-41.7-252.1-174-332.2-295.9
			c-80.2-122-152.2-231.5-295.5-253.6c-32.4-5.1-65.3-6.3-97.9-3.5c-137.4,12.2-240.2,96.7-343.5,181.6
			c-113.6,93.4-225.7,185.5-397.4,200.7c-36.6,3.2-75.9,3-118.5-1.5c-277-29.1-474-185.2-697.9-362.8
			C1551.9,340.4,1317.2,154.3,959,44.5C757.2-17.4,552-40.7,346.8-22.6 M346.7-67.7C210-55.6,73.2-25-62.7,25l6.6,6.7
			c135-49.8,271-80.3,407-92.3C556.4-78.9,761.8-55,964,8.1c356.3,111,590.3,297.9,801.2,466.3c224.8,179.5,422.4,337.4,701.1,368
			c39.7,4.5,79.8,5.1,119.6,1.7c174.6-15.5,290.6-110.5,399.6-199.8c102.1-83.6,203.8-166.9,339.1-178.9c32.8-2.8,65.8-1.5,98.4,3.8
			c141.5,22.5,213.1,131.9,292.8,253.7c80.5,123,167.8,256.3,333.8,299.1c9.4,2.5,19,4.2,28.7,5.3c10.6,1.2,21.4,1.3,32,0.4
			c21.9-1.9,43.1-8.9,61.8-20.4l-1-3.2c-18.3,11.3-39.1,18.1-60.5,20c-18.8,1.7-38.9-0.2-60.1-5.7
			c-164.9-42.6-251.8-175.5-331.9-298c-80.1-122.6-152.1-232.5-295.2-255.5c-33-5.4-66.5-6.7-99.8-3.9
			c-136.3,12.1-238.5,95.7-341.2,179.8c-112.9,92.3-224.2,183.5-394.2,198.5c-37.4,3.3-77.5,2.9-121.2-1.9
			c-276.8-30.6-473.5-188-697.2-367C1558.7,301.4,1324.2,113.9,966.3,2C762.1-61.9,554.5-86.1,346.7-67.7 M346.7-112.9
			c-134,11.9-267.9,41.5-401.1,89.9l6.6,6.7c132.3-48.1,265.5-77.7,398.7-89.5c207.9-18.4,415.8,6.5,620.4,71.4
			C1327.2,78.7,1561,267,1771.7,436.7c224.6,180.9,422,340,700.4,372.1c43.9,5.1,84.5,5.5,122.4,2.1
			c172.8-15.3,288.1-109.2,396.4-197.6c101.5-82.8,202.7-165.2,336.9-177.1c33.4-2.9,67.1-1.5,100.2,4.2
			c141.4,23.3,212.9,133.1,292.5,255.5c80.4,123.5,167.6,257.5,333.4,301.2c9.4,2.5,19,4.3,28.7,5.5c10.9,1.3,21.9,1.5,32.8,0.5
			c21.6-1.8,42.5-8.7,61-20l-1-3.2c-18.1,11.1-38.5,17.8-59.7,19.6c-19.1,1.7-39.3-0.3-60.8-5.9c-164.8-43.6-251.5-177-331.5-300.1
			c-80-123.1-151.9-233.6-294.9-257.3c-33.6-5.7-67.7-7.2-101.7-4.3c-135.2,12-236.8,94.8-339,177.9
			c-112.2,91.3-222.8,181.4-391.1,196.3c-38.1,3.4-79.1,2.9-123.9-2.3c-276.5-32.2-473-190.7-696.5-371.1
			c-211-170.3-445.2-359.3-802.7-473.2C767.1-106.3,556.9-131.6,346.7-112.9 M346.7-158.2C215.5-146.6,84.3-117.8-46.1-71.1l6.6,6.8
			c129.6-46.5,260-75.2,390.4-86.7c210.4-18.6,420.8,7.2,627.7,74.2C1334.3,38.2,1567.8,228,1778.2,399
			c224.3,182.3,421.5,342.6,699.7,376.3c44.9,5.4,86.4,6,125.1,2.6c171.1-15.2,285.6-108,393.3-195.3
			c101-81.9,201.5-163.5,334.6-175.2c34.1-2.9,68.4-1.4,102,4.5c141.3,24.1,212.6,134.4,292.2,257.3
			c80.3,124.1,167.4,258.6,333.1,303.3c9.4,2.6,19,4.4,28.7,5.6c11.1,1.4,22.4,1.6,33.5,0.6c21.3-1.8,41.9-8.5,60.1-19.7l-1-3.2
			c-17.9,10.9-38,17.4-58.9,19.2c-19.3,1.7-39.8-0.4-61.5-6.2c-164.6-44.5-251.3-178.6-331.1-302.1
			C3648.1,543,3576.3,432,3433.5,407.5c-34.2-6-69-7.6-103.5-4.7c-134.1,11.9-235.2,93.8-336.7,176.1
			c-111.4,90.3-221.4,179.4-387.9,194.1c-38.9,3.4-80.8,2.8-126.5-2.7C2202.5,736.6,2006.2,576.8,1783,395
			C1572.2,223.5,1338.3,33,981.1-83C772-150.8,559.4-177,346.7-158.2 M346.8-203.5C218.3-192.2,90.2-164-37.7-119.2l6.6,6.8
			c126.8-44.9,254.5-72.7,382.2-84c212.8-18.9,425.6,8,635,77C1341.3-2.2,1574.5,189,1784.8,361.4
			c224.1,183.7,421.1,345.2,699,380.4c46,5.8,88.4,6.5,127.7,3c169.4-15,283.1-106.8,390.1-193.1c100.4-81,200.4-161.7,332.4-173.4
			c32.5-2.9,67-1.6,103.9,4.9c141.1,24.9,212.4,135.7,291.9,259.2c80.2,124.6,167.2,259.8,332.7,305.4c9.4,2.6,19,4.6,28.7,5.8
			c11.4,1.5,22.9,1.7,34.3,0.7c21-1.8,41.3-8.4,59.3-19.3l-1-3.3c-17.7,10.6-37.5,17.1-58.1,18.8c-19.5,1.7-40.2-0.4-62.2-6.5
			c-164.4-45.4-251-180.1-330.8-304.2c-79.8-124.2-151.5-235.6-294.2-261c-37.4-6.6-72.4-8-105.4-5.1
			c-133,11.8-233.5,92.8-334.5,174.2c-110.8,89.3-220,177.4-384.9,192c-39.6,3.5-82.4,2.8-129.1-3.2
			c-276-35.2-472.1-196.2-695.1-379.4C1579,184.5,1345.3-7.4,988.5-125.4C777-195.4,561.9-222.6,346.8-203.5 M346.9-248.9
			c-125.7,11.1-251.1,38.4-376.3,81.7l6.6,6.8c124.1-43.4,249.1-70.3,374.1-81.3c215.2-19.1,430.5,8.8,642.2,79.9
			c354.8,119.2,587.9,311.9,797.8,485.5c223.8,185.1,420.6,347.8,698.2,384.6c47,6.2,90.3,7,130.4,3.5
			c167.7-14.9,280.7-105.6,387.1-191c99.8-80.2,199.3-160,330.2-171.6c33.1-2.9,68.1-1.5,105.7,5.3c141,25.7,212.2,137,291.6,261
			c80.1,125.2,167,260.9,332.3,307.5c9.4,2.7,19,4.7,28.6,6c11.6,1.6,23.3,1.9,35,0.9c20.7-1.8,40.7-8.2,58.5-18.9l-1-3.3
			c-17.4,10.4-37,16.8-57.3,18.5c-19.7,1.7-40.6-0.5-62.9-6.8C3903.5,872.9,3817,737.7,3737.3,613
			c-79.8-124.8-151.3-236.7-293.9-262.9c-38.1-7-73.7-8.5-107.2-5.5c-131.9,11.7-231.9,91.9-332.3,172.4
			c-110,88.3-218.6,175.4-381.8,189.8c-40.3,3.6-83.9,2.7-131.8-3.7c-275.7-36.8-471.6-199-694.3-383.5
			c-210.3-174.2-443.8-367.5-800.2-487.6C782-239.9,564.4-268.1,346.9-248.9 M347-294.3c-123,10.9-245.7,37.2-368.1,79l6.6,6.9
			C107-250.3,229-276.5,351.5-287.1c217.6-19.3,435.3,9.6,649.4,82.8c354.5,121.2,587.2,315.4,797,490.3
			c223.6,186.5,420.1,350.4,697.5,388.8c48,6.6,92.1,7.6,133,3.9c166.1-14.7,278.3-104.4,384-188.8
			c99.3-79.3,198.1-158.3,328.1-169.8c33.6-3,69.2-1.4,107.5,5.8c140.9,26.5,212,138.3,291.2,262.8c80,125.7,166.8,262.1,332,309.6
			c9.4,2.7,18.9,4.8,28.6,6.1c11.8,1.7,23.8,2,35.7,1c20.4-1.7,40.1-8.1,57.7-18.5l-1-3.3c-17.2,10.2-36.5,16.4-56.5,18.1
			c-19.9,1.8-41-0.6-63.6-7.1c-164.1-47.3-250.4-183.2-330.1-308.4c-79.6-125.3-151.1-237.8-293.6-264.7c-38.8-7.3-75-8.9-109-5.9
			c-130.8,11.6-230.2,90.9-330.1,170.6c-109.3,87.3-217.3,173.4-378.8,187.7c-41,3.6-85.5,2.6-134.3-4.2
			c-275.4-38.3-471.1-201.7-693.6-387.7c-210.1-175.5-443.3-370.3-799.4-492.4C787-284.5,567-313.8,347-294.3 M347.2-339.7
			C227-329.1,107-303.6-12.7-263.3l6.6,6.9c118.8-40.4,238.1-65.8,357.8-76.1c220-19.5,440.1,10.4,656.5,85.7
			c354.1,123.3,586.6,318.9,796.2,495.1c223.4,187.9,419.7,353.1,696.8,392.9c49.1,7.1,94,8.1,135.6,4.4
			c164.4-14.6,275.9-103.2,380.9-186.7c98.7-78.5,197-156.6,325.9-168c34.1-3,70.3-1.4,109.3,6.2
			c140.7,27.3,211.8,139.6,290.9,264.7c79.9,126.3,166.6,263.2,331.6,311.7c9.4,2.8,18.9,4.9,28.6,6.3c12.1,1.8,24.3,2.1,36.5,1.1
			c20.1-1.7,39.5-7.9,56.9-18.2l-1-3.3c-17,10-36,16.1-55.7,17.8c-20.1,1.8-41.5-0.7-64.2-7.3c-164-48.3-250.2-184.7-329.7-310.5
			c-79.6-125.9-150.9-238.8-293.2-266.6c-39.5-7.7-76.3-9.4-110.9-6.3c-129.7,11.5-228.6,90-327.9,168.8
			c-108.6,86.3-215.9,171.4-375.8,185.6c-41.7,3.7-87,2.6-136.9-4.7c-275.2-39.8-470.6-204.5-692.9-391.8
			c-209.9-176.8-442.8-373.1-798.6-497.2C792.1-329.1,569.6-359.4,347.2-339.7 M347.4-385.2c-117.5,10.4-234.8,35-351.8,73.9l6.6,7
			C118.3-343.3,234.9-367.8,352-378c222.3-19.7,444.9,11.2,663.6,88.7c353.8,125.3,586,322.4,795.3,499.9
			C2034,399.9,2230.1,566.3,2507,607.7c50.1,7.5,95.9,8.7,138.2,4.9c162.8-14.4,273.5-102,377.9-184.5
			c98.1-77.6,195.9-154.9,323.7-166.3c34.6-3.1,71.4-1.3,111.1,6.6c140.6,28.1,211.5,140.8,290.6,266.5
			c79.8,126.8,166.4,264.4,331.2,313.8c9.3,2.8,18.9,5,28.5,6.4c12.3,1.9,24.8,2.3,37.2,1.3c19.8-1.7,39-7.8,56.1-17.8l-1-3.3
			c-16.8,9.8-35.5,15.8-54.9,17.4c-20.2,1.8-41.9-0.8-64.9-7.6c-163.8-49.2-249.9-186.2-329.3-312.6
			c-79.5-126.4-150.8-239.8-292.9-268.4c-40.2-8.1-77.6-9.9-112.6-6.8c-128.7,11.4-227,89-325.7,167
			c-107.9,85.3-214.5,169.5-372.8,183.5c-42.4,3.8-88.5,2.5-139.4-5.2c-274.9-41.4-470.1-207.2-692.2-395.9
			C1606,28.6,1373.4-169.1,1017.9-295.3C797.1-373.8,572.1-405.1,347.4-385.2 M347.7-430.8C232.8-420.6,118.3-396.8,4-359.4l6.6,7
			c113.4-37.5,227.4-61.2,341.7-71.1C577-443.4,802-411.4,1023-331.8C1376.4-204.4,1608.4-5.9,1817.4,173
			c222.9,190.7,418.8,358.3,695.4,401.2c51.1,7.9,97.7,9.3,140.7,5.5c161.2-14.3,271.2-100.8,374.9-182.4
			c97.6-76.8,194.8-153.3,321.6-164.5c35.1-3.1,72.5-1.2,112.8,7.1c140.4,28.8,211.3,142.1,290.3,268.3
			c79.7,127.4,166.2,265.5,330.9,315.9c9.3,2.9,18.9,5.1,28.5,6.6c12.5,2,25.2,2.5,37.9,1.4c19.5-1.7,38.4-7.6,55.3-17.5l-1-3.3
			c-16.6,9.6-35,15.4-54.1,17.1c-20.4,1.8-42.3-0.8-65.6-7.9c-163.6-50.1-249.7-187.8-329-314.7c-79.4-127-150.6-240.9-292.6-270.2
			c-40.9-8.5-78.8-10.4-114.4-7.2c-127.6,11.3-225.4,88.1-323.5,165.2c-107.3,84.3-213.2,167.5-369.8,181.4
			c-43.1,3.8-90,2.4-141.9-5.7c-274.6-42.9-469.7-210-691.5-400.1c-209.4-179.4-441.8-378.6-796.9-506.9
			C802.2-418.4,574.8-450.9,347.7-430.8 M348-476.3c-112.1,9.9-224,32.9-335.6,68.9l6.6,7.1c110.8-36.1,222.1-59,333.8-68.7
			c227-20.1,454.4,13,677.7,94.8c353.1,129.4,584.8,329.4,793.7,509.5c222.7,192.1,418.3,360.9,694.6,405.4
			c52.1,8.4,99.6,9.9,143.2,6c159.6-14.1,268.8-99.7,371.9-180.3c97-76,193.7-151.6,319.4-162.7c35.6-3.2,73.6-1.1,114.6,7.5
			c140.3,29.7,211.1,143.4,290,270.2c79.6,127.9,166,266.7,330.5,318c9.3,2.9,18.8,5.2,28.5,6.8c12.7,2.1,25.7,2.6,38.6,1.5
			c19.2-1.6,37.8-7.5,54.5-17.1l-1-3.3c-16.3,9.4-34.6,15.1-53.4,16.7c-20.6,1.8-42.7-0.9-66.2-8.2
			c-163.5-51.1-249.4-189.3-328.6-316.8c-79.3-127.5-150.4-241.9-292.3-272.1c-41.6-8.8-80.1-10.9-116.2-7.7
			c-126.6,11.2-223.8,87.2-321.3,163.5c-106.6,83.3-211.8,165.6-366.9,179.3c-43.8,3.9-91.5,2.3-144.4-6.3
			c-274.4-44.4-469.2-212.8-690.8-404.2c-209.2-180.7-441.3-381.3-796.1-511.7C807.2-463.1,577.4-496.7,348-476.3 M348.3-522
			C237-512,127.1-489.7,20.7-455.5l6.6,7.1C133-482.5,242.3-504.7,353-514.7c229.4-20.3,459.1,13.9,684.7,97.9
			c352.7,131.5,584.2,332.8,792.8,514.3c222.4,193.5,417.9,363.5,693.9,409.6c53.1,8.9,101.4,10.5,145.8,6.6
			c158-14,266.5-98.5,368.9-178.2c96.5-75.1,192.6-149.9,317.3-161c36.1-3.2,74.7-1,116.3,8c140.2,30.4,210.9,144.7,289.6,272
			c79.5,128.5,165.8,267.9,330.2,320.1c9.3,3,18.8,5.3,28.5,6.9c13,2.2,26.1,2.8,39.2,1.7c18.9-1.6,37.3-7.3,53.8-16.8l-1-3.3
			c-16.1,9.2-34.1,14.8-52.6,16.4c-20.8,1.8-43.1-1-66.9-8.5c-163.3-52-249.1-190.9-328.2-318.8c-79.2-128.1-150.2-243-292-273.9
			c-42.3-9.2-81.4-11.4-118-8.2c-125.6,11.1-222.2,86.3-319.2,161.7c-105.9,82.4-210.5,163.7-364,177.3c-44.4,3.9-93,2.2-146.9-6.8
			c-274.1-46-468.7-215.5-690-408.4c-209-182.1-440.9-384.1-795.2-516.5C812.3-507.8,580.1-542.5,348.3-522"/>
		<g id="Vector" class="st2">
			
				<image style="overflow:visible;enable-background:new    ;" width="498" height="498" id="image" xlink:href="C1C25B0C016AAC94.png"  transform="matrix(1 0 0 1 3157 1644)">
			</image>
		</g>
		<g id="Vector-2" class="st2">
			
				<image style="overflow:visible;enable-background:new    ;" width="498" height="498" id="image_2_" xlink:href="C1C25B0C016AAC95.png"  transform="matrix(1 0 0 1 965 -275)">
			</image>
		</g>
		<path id="Shape-2" class="st3" d="M3450,588.8c0-41.7-33.8-75.6-75.6-75.6c-41.7,0-75.6,33.8-75.6,75.6s33.8,75.6,75.6,75.6
			c0,0,0,0,0,0C3416.2,664.4,3450,630.6,3450,588.8C3450,588.8,3450,588.8,3450,588.8z M3314.7,588.8c0-33,26.7-59.7,59.7-59.8
			c33,0,59.7,26.7,59.8,59.7c0,33-26.7,59.7-59.7,59.8c0,0,0,0,0,0C3341.4,648.5,3314.7,621.8,3314.7,588.8L3314.7,588.8z"/>
		<g style="clip-path:url(#SVGID_3_);enable-background:new    ;">
			
				<image style="overflow:visible;" width="1479" height="1479" id="Vector-3" xlink:href="C1C25B0C016AAC93.png"  transform="matrix(1 0 0 1 1866 328)">
			</image>
		</g>
		<path id="Shape-3" class="st4" d="M1902,1643.5c0-32.3-26.2-58.5-58.5-58.5s-58.5,26.2-58.5,58.5s26.2,58.5,58.5,58.5l0,0
			C1875.8,1702,1902,1675.8,1902,1643.5z M1797.3,1643.5c0-25.5,20.7-46.2,46.2-46.2c25.5,0,46.2,20.7,46.2,46.2
			c0,25.5-20.7,46.2-46.2,46.2c0,0,0,0,0,0C1818,1689.7,1797.3,1669,1797.3,1643.5z"/>
		<g style="clip-path:url(#SVGID_3_);enable-background:new    ;">
			
				<image style="overflow:visible;" width="2159" height="1084" id="Vector-4" xlink:href="C1C25B0C016AAC9C.png"  transform="matrix(1 0 0 1 534 1556)">
			</image>
		</g>
		<path id="Shape-4" class="st5" d="M1881,557.5c0-59.9-48.6-108.5-108.5-108.5S1664,497.6,1664,557.5S1712.6,666,1772.5,666l0,0
			C1832.4,666,1881,617.4,1881,557.5z M1686.8,557.5c0-47.4,38.4-85.7,85.7-85.7c47.4,0,85.7,38.4,85.7,85.7
			c0,47.3-38.4,85.7-85.7,85.7C1725.2,643.2,1686.8,604.8,1686.8,557.5z"/>
		<g style="clip-path:url(#SVGID_3_);enable-background:new    ;">
			
				<image style="overflow:visible;" width="1671" height="1796" id="Replace_Image_Here_Double_Click_to_Edit_" xlink:href="C1C25B0C016AAC9F.png"  transform="matrix(1.0122 0 0 1.0122 1656.7656 298)">
			</image>
		</g>
	</g>
</g>
</svg>
