<svg xmlns="http://www.w3.org/2000/svg" viewBox="0 0 500 372.61"><defs><style>.cls-1{fill:#ebebeb;}.cls-2,.cls-5{fill:#f0f0f0;}.cls-3{fill:#e0e0e0;}.cls-4{fill:#e6e6e6;}.cls-5{stroke:#e0e0e0;stroke-linecap:round;stroke-linejoin:round;stroke-width:2px;}.cls-6{fill:#f5f5f5;}.cls-7{fill:#263238;}.cls-10,.cls-14,.cls-15,.cls-17,.cls-20,.cls-22,.cls-8{fill:#fff;}.cls-11,.cls-13,.cls-20,.cls-21,.cls-8{opacity:0.2;}.cls-10,.cls-12,.cls-13,.cls-14,.cls-15,.cls-17,.cls-21,.cls-8{isolation:isolate;}.cls-9{fill:#407bff;}.cls-10{opacity:0.8;}.cls-12{opacity:0.1;}.cls-14{opacity:0.3;}.cls-15{opacity:0.6;}.cls-16{fill:#ebb376;}.cls-17{opacity:0.4;}.cls-18{fill:#de5753;}.cls-19{fill:#e4897b;}</style></defs><g id="Background_Complete" data-name="Background Complete"><rect class="cls-1" y="327.45" width="500" height="0.25"/><rect class="cls-1" x="50.1" y="343.54" width="33.12" height="0.25"/><rect class="cls-1" x="168.78" y="346.26" width="8.69" height="0.25"/><rect class="cls-1" x="84.22" y="334.26" width="19.19" height="0.25"/><rect class="cls-1" x="404.35" y="335.94" width="43.19" height="0.25"/><rect class="cls-1" x="389.11" y="335.94" width="6.33" height="0.25"/><rect class="cls-1" x="274.85" y="340.16" width="93.68" height="0.25"/><path class="cls-1" d="M257.28,332.09V60.66A5.71,5.71,0,0,1,263,55h193.1a5.71,5.71,0,0,1,5.7,5.71V332.09a5.71,5.71,0,0,1-5.71,5.71H263A5.71,5.71,0,0,1,257.28,332.09ZM263,55.2a5.47,5.47,0,0,0-5.46,5.46V332.09a5.47,5.47,0,0,0,5.46,5.46H456.08a5.47,5.47,0,0,0,5.46-5.46V60.66a5.46,5.46,0,0,0-5.45-5.46Z" transform="translate(0 -54.95)"/><path class="cls-1" d="M41,332.09V60.66A5.71,5.71,0,0,1,46.69,55h193.1a5.72,5.72,0,0,1,5.71,5.71V332.09a5.72,5.72,0,0,1-5.71,5.71H46.69A5.71,5.71,0,0,1,41,332.09ZM46.69,55.2a5.47,5.47,0,0,0-5.46,5.46V332.09a5.47,5.47,0,0,0,5.46,5.46h193.1a5.47,5.47,0,0,0,5.46-5.46V60.66a5.47,5.47,0,0,0-5.46-5.46Z" transform="translate(0 -54.95)"/><rect class="cls-2" x="93.94" y="128" width="135.3" height="198.38"/><rect class="cls-3" x="98.72" y="134.24" width="125.74" height="36.64"/><rect class="cls-1" x="98.72" y="140.17" width="7.14" height="30.71"/><rect class="cls-1" x="133.26" y="140.17" width="7.14" height="30.71"/><rect class="cls-1" x="175.13" y="194.74" width="7.14" height="30.71" transform="translate(-33.08 -21.55) rotate(-9.78)"/><rect class="cls-1" x="107.57" y="144.22" width="7.14" height="26.66"/><rect class="cls-1" x="123.99" y="144.22" width="7.14" height="26.66"/><rect class="cls-1" x="165.43" y="144.22" width="7.14" height="26.66"/><rect class="cls-1" x="145.62" y="198.71" width="7.14" height="26.66" transform="translate(-42.44 -17.55) rotate(-12.53)"/><rect class="cls-1" x="117.32" y="138.65" width="3.57" height="32.23"/><rect class="cls-1" x="159.8" y="138.65" width="3.57" height="32.23"/><rect class="cls-3" x="98.72" y="231.63" width="125.74" height="36.64" transform="translate(323.18 444.95) rotate(-180)"/><rect class="cls-1" x="217.32" y="237.56" width="7.14" height="30.71" transform="translate(441.78 450.88) rotate(-180)"/><rect class="cls-1" x="182.78" y="237.56" width="7.14" height="30.71" transform="translate(372.7 450.88) rotate(-180)"/><rect class="cls-1" x="140.91" y="237.18" width="7.14" height="30.71" transform="translate(243.98 470.98) rotate(-170.22)"/><rect class="cls-1" x="208.47" y="241.61" width="7.14" height="26.66" transform="translate(424.08 454.93) rotate(-180)"/><rect class="cls-1" x="192.05" y="241.61" width="7.14" height="26.66" transform="translate(391.24 454.93) rotate(-180)"/><rect class="cls-1" x="150.61" y="241.61" width="7.14" height="26.66" transform="translate(308.36 454.93) rotate(-180)"/><rect class="cls-1" x="170.42" y="241.15" width="7.14" height="26.66" transform="translate(288.65 485.69) rotate(-167.47)"/><rect class="cls-1" x="202.29" y="236.04" width="3.57" height="32.23" transform="translate(408.15 449.35) rotate(-180)"/><rect class="cls-1" x="159.8" y="236.04" width="3.57" height="32.23" transform="translate(323.18 449.35) rotate(-180)"/><rect class="cls-1" x="98.72" y="182.61" width="7.14" height="30.71"/><rect class="cls-1" x="107.57" y="186.66" width="7.14" height="26.66"/><rect class="cls-1" x="123.99" y="186.66" width="7.14" height="26.66"/><rect class="cls-1" x="117.32" y="181.09" width="3.57" height="32.23"/><rect class="cls-3" x="98.72" y="219.12" width="125.74" height="36.64"/><rect class="cls-1" x="170.89" y="225.05" width="7.14" height="30.71"/><rect class="cls-1" x="212.76" y="279.62" width="7.14" height="30.71" transform="translate(-46.95 -13.93) rotate(-9.78)"/><rect class="cls-1" x="145.2" y="229.1" width="7.14" height="26.66"/><rect class="cls-1" x="161.62" y="229.1" width="7.14" height="26.66"/><rect class="cls-1" x="203.06" y="229.1" width="7.14" height="26.66"/><rect class="cls-1" x="183.25" y="283.59" width="7.14" height="26.66" transform="translate(-59.96 -7.36) rotate(-12.53)"/><rect class="cls-1" x="154.95" y="223.52" width="3.57" height="32.23"/><rect class="cls-1" x="197.44" y="223.52" width="3.57" height="32.23"/><rect class="cls-1" x="130.58" y="279.62" width="7.14" height="30.71" transform="translate(-48.15 -27.88) rotate(-9.78)"/><rect class="cls-1" x="120.88" y="229.1" width="7.14" height="26.66"/><rect class="cls-1" x="101.07" y="283.59" width="7.14" height="26.66" transform="translate(-61.91 -25.19) rotate(-12.53)"/><rect class="cls-1" x="115.26" y="223.52" width="3.57" height="32.23"/><rect class="cls-3" x="70.59" y="182.95" width="23.34" height="198.89" transform="translate(164.53 509.84) rotate(-180)"/><path class="cls-4" d="M395.58,140.24s1.17-7.72-4.46-12.68-5.14-7.9-3.53-8.28,3.09,4.57,5.57,5.93c0,0,.08-7.06-2.44-9.66s-3.83-9.3-1.44-9.42,2.64,4,3.14,6.88,3.16,7,3.16,7,.52-6.32,2.15-8.92-2.71-8.55-1-11.15,4.64,2.36,4.4,7.93-4,11.52-3.1,17.34c0,0,1.64-4.09,3.11-4.46s3-3.08,3.95-4.08,2.23,2.47,0,5.69-7.93,11.83-7.06,18.8Z" transform="translate(0 -54.95)"/><path class="cls-4" d="M392.21,136.73l-1.84,11.58a5.88,5.88,0,0,0,5.81,6.81h2a5.88,5.88,0,0,0,5.81-6.81l-1.84-11.58Z" transform="translate(0 -54.95)"/><rect class="cls-3" x="289.68" y="95.89" width="130.44" height="6.7"/><rect class="cls-1" x="295.69" y="71.19" width="5.75" height="24.7"/><rect class="cls-1" x="323.47" y="71.19" width="5.75" height="24.7"/><rect class="cls-1" x="357.16" y="125.83" width="5.75" height="24.7" transform="translate(-18.24 8.2) rotate(-9.78)"/><rect class="cls-1" x="302.81" y="74.45" width="5.75" height="21.45"/><rect class="cls-1" x="316.02" y="74.45" width="5.75" height="21.45"/><rect class="cls-1" x="349.36" y="74.45" width="5.75" height="21.45"/><rect class="cls-1" x="333.42" y="129.03" width="5.75" height="21.45" transform="translate(-22.31 21.31) rotate(-12.53)"/><rect class="cls-1" x="310.65" y="69.96" width="2.87" height="25.93"/><rect class="cls-1" x="344.83" y="69.96" width="2.87" height="25.93"/><rect class="cls-3" x="289.68" y="200.88" width="130.44" height="6.7" transform="translate(709.81 353.51) rotate(-180)"/><rect class="cls-1" x="408.37" y="176.18" width="5.75" height="24.7" transform="translate(822.49 322.1) rotate(-180)"/><rect class="cls-1" x="380.59" y="176.18" width="5.75" height="24.7" transform="translate(766.92 322.1) rotate(-180)"/><rect class="cls-1" x="346.9" y="175.87" width="5.75" height="24.7" transform="translate(662.5 378.16) rotate(-170.22)"/><rect class="cls-1" x="401.25" y="179.43" width="5.75" height="21.45" transform="translate(808.25 325.36) rotate(-180)"/><rect class="cls-1" x="388.04" y="179.43" width="5.75" height="21.45" transform="translate(781.83 325.36) rotate(-180)"/><rect class="cls-1" x="354.7" y="179.43" width="5.75" height="21.45" transform="translate(715.15 325.36) rotate(-180)"/><rect class="cls-1" x="370.64" y="179.06" width="5.75" height="21.45" transform="matrix(-0.98, -0.22, 0.22, -0.98, 696.98, 401.12)"/><rect class="cls-1" x="396.28" y="174.95" width="2.87" height="25.93" transform="translate(795.44 320.87) rotate(-180)"/><rect class="cls-1" x="362.1" y="174.95" width="2.87" height="25.93" transform="translate(727.08 320.87) rotate(-180)"/><rect class="cls-1" x="302.2" y="181.33" width="28" height="19.33" transform="translate(632.4 327.03) rotate(-180)"/><circle class="cls-3" cx="154.33" cy="65.58" r="19.53"/><circle class="cls-2" cx="154.33" cy="65.58" r="16.61"/><polyline class="cls-5" points="155.11 54.18 155.11 65.79 162.81 61.44"/></g><g id="Shadow"><ellipse id="_Path_" data-name="&lt;Path&gt;" class="cls-6" cx="250" cy="361.29" rx="193.89" ry="11.32"/></g><g id="Plant"><path class="cls-7" d="M119.61,399.78s-4.32-20.43,3.55-31.49-7.11-.13-8.84,10.23c0,0-2.58-18.52,5.06-31.54s-6.65-2.34-7.87,11.09c0,0-2.34-16.52,1.17-25.81s-2.59-3.31-4.94,2.51.73,20.23.73,20.23-6.12-26.65-11.92-24.53,8.67,19.58,10.67,28.66c0,0-6.83-12.22-12-9.67s8,3.81,14.08,22l2.12,8.54S105.12,368,101,371.78s12.19,10.37,16,28.65Z" transform="translate(0 -54.95)"/><path class="cls-7" d="M118.76,401s-.9-25.75-13.63-36.65,8.48-2.27,13.63,9.62c0,0-2.42-22.95-15.44-36.28s7.27-4.77,12.72,10.94c0,0-2.12-20.48-9.09-30.55s2.12-4.75,6.66,1.52S118.76,344,118.76,344s-.6-33.74,7-32.92-4.54,26-4.24,37.5c0,0,4.55-16.67,11.51-15.17s-8.48,7-10.3,30.58v10.87s3.94-16.32,10-13S121.19,377.93,122.1,401Z" transform="translate(0 -54.95)"/><path class="cls-8" d="M118.76,401s-.9-25.75-13.63-36.65,8.48-2.27,13.63,9.62c0,0-2.42-22.95-15.44-36.28s7.27-4.77,12.72,10.94c0,0-2.12-20.48-9.09-30.55s2.12-4.75,6.66,1.52S118.76,344,118.76,344s-.6-33.74,7-32.92-4.54,26-4.24,37.5c0,0,4.55-16.67,11.51-15.17s-8.48,7-10.3,30.58v10.87s3.94-16.32,10-13S121.19,377.93,122.1,401Z" transform="translate(0 -54.95)"/><path class="cls-9" d="M101.49,351.06H138.9a0,0,0,0,1,0,0v2.07a11,11,0,0,1-11,11H112.49a11,11,0,0,1-11-11v-2.07a0,0,0,0,1,0,0Z"/><rect class="cls-9" x="96.59" y="343.52" width="47.2" height="11.7" rx="4.21"/><rect class="cls-8" x="96.59" y="343.52" width="47.2" height="11.7" rx="4.21"/></g><g id="Table"><path class="cls-7" d="M328.29,278.47a1.81,1.81,0,0,1-1.81,2.59H279.13a4.09,4.09,0,0,1-3.61-2.59l-10-28.9a2.41,2.41,0,0,1-.15-.84,1.77,1.77,0,0,1,2-1.75h47.36a4.09,4.09,0,0,1,3.61,2.59Z" transform="translate(0 -54.95)"/><path class="cls-9" d="M278.77,279.61a2,2,0,0,1-1.77-1.27l-10-28.9a1,1,0,0,1-.06-.36c0-.4.29-.65.75-.65H315a2,2,0,0,1,1.77,1.27l10,28.9a.79.79,0,0,1-.05.73.73.73,0,0,1-.64.28Z" transform="translate(0 -54.95)"/><path class="cls-10" d="M278.77,279.61a2,2,0,0,1-1.77-1.27l-10-28.9a1,1,0,0,1-.06-.36c0-.4.29-.65.75-.65H315a2,2,0,0,1,1.77,1.27l10,28.9a.79.79,0,0,1-.05.73.73.73,0,0,1-.64.28Z" transform="translate(0 -54.95)"/><path class="cls-7" d="M348.56,278.92v1.33l-9.38,2.41H279.35a1.67,1.67,0,0,1-1.67-1.67v-2.07Z" transform="translate(0 -54.95)"/><polygon class="cls-8" points="298.5 223.97 298.5 225.3 289.11 227.71 339.18 227.71 348.56 225.3 348.56 223.97 298.5 223.97"/><g class="cls-11"><polygon class="cls-9" points="269.98 200.27 317.85 200.27 315.99 195.05 268.12 195.05 269.98 200.27"/></g><g class="cls-12"><path d="M272.38,261.94h47.87c.14,0,.21-.11.16-.26a.41.41,0,0,0-.34-.26H272.19c-.13,0-.2.12-.15.26A.38.38,0,0,0,272.38,261.94Z" transform="translate(0 -54.95)"/></g><g class="cls-12"><path d="M275,269.27h47.87c.14,0,.21-.12.16-.26a.41.41,0,0,0-.35-.26H274.81c-.14,0-.21.11-.16.26A.41.41,0,0,0,275,269.27Z" transform="translate(0 -54.95)"/></g><g class="cls-12"><path d="M277.61,276.6h47.87c.14,0,.21-.12.16-.26a.39.39,0,0,0-.34-.27H277.43c-.14,0-.21.12-.16.27A.4.4,0,0,0,277.61,276.6Z" transform="translate(0 -54.95)"/></g><polygon class="cls-7" points="293.53 364.01 288.32 364.01 278.95 233.58 285.87 233.58 293.53 364.01"/><polygon class="cls-8" points="293.54 364.01 288.32 364.01 279.41 240.06 278.95 233.79 285.87 233.79 286.24 240.06 293.54 364.01"/><polygon class="cls-13" points="286.24 239.74 279.41 239.74 278.95 233.79 285.87 233.79 286.24 239.74"/><polygon class="cls-7" points="331.8 364.01 326.59 364.01 325.74 233.58 332.65 233.58 331.8 364.01"/><polygon class="cls-14" points="332.66 233.79 332.52 254.83 331.81 364.01 326.59 364.01 325.87 254.83 325.74 233.79 332.66 233.79"/><polygon class="cls-13" points="332.66 233.79 332.52 255.06 325.87 255.06 325.74 233.79 332.66 233.79"/><polygon class="cls-7" points="387.16 364.01 381.95 364.01 372.58 233.58 379.5 233.58 387.16 364.01"/><polygon class="cls-14" points="387.16 364.01 381.95 364.01 373.04 240.06 372.57 233.79 379.5 233.79 379.87 240.06 387.16 364.01"/><polygon class="cls-13" points="379.87 239.74 373.04 239.74 372.57 233.79 379.5 233.79 379.87 239.74"/><polygon class="cls-7" points="233.88 364.01 228.67 364.01 236.33 233.58 243.25 233.58 233.88 364.01"/><polygon class="cls-14" points="243.25 233.79 242.79 240.06 233.88 364.01 228.67 364.01 235.96 240.06 236.33 233.79 243.25 233.79"/><polygon class="cls-13" points="236.33 233.79 243.25 233.79 242.79 239.74 235.96 239.74 236.33 233.79"/><path class="cls-9" d="M230.85,230.31H385a0,0,0,0,1,0,0v4.37a2.16,2.16,0,0,1-2.16,2.16H233a2.16,2.16,0,0,1-2.16-2.16v-4.37a0,0,0,0,1,0,0Z"/><rect class="cls-13" x="230.85" y="230.31" width="154.13" height="3.27"/><path class="cls-9" d="M388.21,286.11H227.62a1.84,1.84,0,0,1-1.84-1.84h0a1.84,1.84,0,0,1,1.84-1.84H388.21a1.84,1.84,0,0,1,1.84,1.84h0A1.84,1.84,0,0,1,388.21,286.11Z" transform="translate(0 -54.95)"/><path class="cls-7" d="M232.75,277.8a10.51,10.51,0,0,0,.85,4.63h36.59v-.87h-.74V274h.74v-.87H233.6A10.8,10.8,0,0,0,232.75,277.8Z" transform="translate(0 -54.95)"/><path class="cls-8" d="M232.75,277.8a10.51,10.51,0,0,0,.85,4.63h36.59v-.87h-.74V274h.74v-.87H233.6A10.8,10.8,0,0,0,232.75,277.8Z" transform="translate(0 -54.95)"/><path class="cls-13" d="M252.33,277.8a10.51,10.51,0,0,0,.85,4.63h17v-.87h-.74V274h.74v-.87h-17A10.8,10.8,0,0,0,252.33,277.8Z" transform="translate(0 -54.95)"/><path class="cls-10" d="M254.13,277.8a8.52,8.52,0,0,0,.69,3.76h14.63V274H254.82A8.82,8.82,0,0,0,254.13,277.8Z" transform="translate(0 -54.95)"/><path class="cls-15" d="M238.71,277.8a10.51,10.51,0,0,0,.85,4.63h6.81a10.51,10.51,0,0,1-.85-4.63,10.8,10.8,0,0,1,.85-4.64h-6.81A10.8,10.8,0,0,0,238.71,277.8Z" transform="translate(0 -54.95)"/><path class="cls-9" d="M229.49,268.53a10.51,10.51,0,0,0,.85,4.63h36.59v-.87h-.74v-7.53h.74v-.87H230.34A10.86,10.86,0,0,0,229.49,268.53Z" transform="translate(0 -54.95)"/><path class="cls-13" d="M249.07,268.53a10.51,10.51,0,0,0,.85,4.63h17v-.87h-.74v-7.53h.74v-.87h-17A10.86,10.86,0,0,0,249.07,268.53Z" transform="translate(0 -54.95)"/><path class="cls-10" d="M250.87,268.53a8.52,8.52,0,0,0,.69,3.76h14.63v-7.53H251.56A8.82,8.82,0,0,0,250.87,268.53Z" transform="translate(0 -54.95)"/><path class="cls-13" d="M235.45,268.53a10.51,10.51,0,0,0,.85,4.63h6.81a10.51,10.51,0,0,1-.85-4.63,10.86,10.86,0,0,1,.85-4.64H236.3A10.86,10.86,0,0,0,235.45,268.53Z" transform="translate(0 -54.95)"/></g><g id="Character"><g id="_Group_" data-name="&lt;Group&gt;"><polygon class="cls-16" points="352.25 341.72 355.46 356.62 363.1 356.49 359.9 341.72 352.25 341.72"/><polygon class="cls-13" points="352.24 341.72 353.84 349.08 361.4 348.58 359.91 341.72 352.24 341.72"/><path class="cls-9" d="M354.32,411.19h0c0-.13-.13-2.29-.93-3a1.1,1.1,0,0,0-.85-.2.71.71,0,0,0-.64.58,2.69,2.69,0,0,0,.75,1.74,3.18,3.18,0,0,0-2.12-.39.71.71,0,0,0-.38.54.93.93,0,0,0,.28,1,2,2,0,0,0,1.45.29,9.12,9.12,0,0,0,2-.4.07.07,0,0,0,.06,0s0,0,0,0,.18-.05.19-.08l.16,0Zm-2.11-2.53c0-.11.07-.24.32-.28h.09a.51.51,0,0,1,.39.14,3.77,3.77,0,0,1,.64,2.33l-.15-.09A3.64,3.64,0,0,1,352.21,408.66Zm-1.55,2.52a.67.67,0,0,1-.17-.63.33.33,0,0,1,.18-.26c.49-.22,1.8.33,2.72.84C352,411.48,351,411.5,350.66,411.18Z" transform="translate(0 -54.95)"/><path class="cls-7" d="M354.5,410.26l8.55-.53a.54.54,0,0,1,.6.48h0l.84,6.75a1.36,1.36,0,0,1-1.25,1.43c-3,.13-4.42.05-8.18.25A71.76,71.76,0,0,1,345,419c-3.19-.31-2.8-3.46-1.42-3.61,3.26-.37,7.58-2.77,9.63-4.59A2.17,2.17,0,0,1,354.5,410.26Z" transform="translate(0 -54.95)"/><polygon class="cls-16" points="307.58 341.72 310.8 356.62 318.44 356.49 315.24 341.72 307.58 341.72"/><polygon class="cls-13" points="307.58 341.72 309.18 349.08 316.74 348.58 315.25 341.72 307.58 341.72"/><path class="cls-9" d="M309.66,411.19h0c0-.13-.13-2.29-.93-3a1.11,1.11,0,0,0-.85-.2.73.73,0,0,0-.65.58,2.76,2.76,0,0,0,.76,1.74,3.18,3.18,0,0,0-2.12-.39.69.69,0,0,0-.38.54.93.93,0,0,0,.27,1,2,2,0,0,0,1.46.29,9.12,9.12,0,0,0,2-.4.07.07,0,0,0,.06,0s0,0,0,0,.19-.05.2-.08l.16,0Zm-2.11-2.53c0-.11.07-.24.32-.28H308a.52.52,0,0,1,.39.14,3.84,3.84,0,0,1,.64,2.33,1.19,1.19,0,0,1-.15-.09A3.64,3.64,0,0,1,307.55,408.66ZM306,411.18a.66.66,0,0,1-.16-.63.33.33,0,0,1,.18-.26c.49-.22,1.8.33,2.72.84C307.38,411.48,306.38,411.5,306,411.18Z" transform="translate(0 -54.95)"/><path class="cls-7" d="M309.84,410.26l8.55-.53a.54.54,0,0,1,.6.48h0l.84,6.75a1.36,1.36,0,0,1-1.25,1.43c-3,.13-4.42.05-8.18.25a71.85,71.85,0,0,1-10.06.33c-3.18-.31-2.79-3.46-1.42-3.61,3.27-.37,7.59-2.77,9.63-4.59A2.17,2.17,0,0,1,309.84,410.26Z" transform="translate(0 -54.95)"/><path class="cls-9" d="M338.56,368.31a239.1,239.1,0,0,0,11.12,32.86l13.94-1.06s-5.72-22.34-7.79-42.8c-1.28-12.63-1.17-23.08,2.53-23.89,2.33-.52,7.77-.5,14.75-.33v-26c-19.58,4-39.06,11.6-40.54,17.68C330.5,333.33,334.12,351.45,338.56,368.31Z" transform="translate(0 -54.95)"/><path class="cls-17" d="M338.56,368.31a239.1,239.1,0,0,0,11.12,32.86l13.94-1.06s-5.72-22.34-7.79-42.8c-1.28-12.63-1.17-23.08,2.53-23.89,2.33-.52,7.77-.5,14.75-.33v-26c-19.58,4-39.06,11.6-40.54,17.68C330.5,333.33,334.12,351.45,338.56,368.31Z" transform="translate(0 -54.95)"/><path class="cls-13" d="M338.56,368.31c5.2-3.3,11.29-7.17,17.27-11-1.28-12.63-1.17-23.08,2.53-23.89,2.33-.52,7.77-.5,14.75-.33v-26c-19.58,4-39.06,11.6-40.54,17.68C330.5,333.33,334.12,351.45,338.56,368.31Z" transform="translate(0 -54.95)"/><path class="cls-9" d="M346.18,304.53,345,294.66l39.9-6.57s13,25.86,6.66,38.53c-5.85,11.62-68.21,4.7-77.81,6.79S319,400.1,319,400.1L305,401.17s-21.54-58.12-17.11-76.4C289.84,316.8,322.72,306.24,346.18,304.53Z" transform="translate(0 -54.95)"/><path class="cls-15" d="M346.18,304.53,345,294.66l39.9-6.57s13,25.86,6.66,38.53c-5.85,11.62-68.21,4.7-77.81,6.79S319,400.1,319,400.1L305,401.17s-21.54-58.12-17.11-76.4C289.84,316.8,322.72,306.24,346.18,304.53Z" transform="translate(0 -54.95)"/><path class="cls-7" d="M324.23,224.24c.34.59.3,1.26-.09,1.48s-1-.08-1.31-.68-.3-1.25.08-1.48S323.86,223.67,324.23,224.24Z" transform="translate(0 -54.95)"/><path class="cls-7" d="M324.86,221.05a.49.49,0,0,0,.2-.18.42.42,0,0,0-.21-.53,4,4,0,0,0-3.67.18.4.4,0,0,0-.13.54l0,0a.41.41,0,0,0,.56.11h0a3.17,3.17,0,0,1,2.89-.11A.4.4,0,0,0,324.86,221.05Z" transform="translate(0 -54.95)"/><path class="cls-18" d="M323.67,223.48a24.72,24.72,0,0,1,.07,6.71,4,4,0,0,0,3.15-1.1Z" transform="translate(0 -54.95)"/><path class="cls-19" d="M327.25,231.84c.24.29.48.57.74.83a10.35,10.35,0,0,0,5.42,3,10.83,10.83,0,0,0,1.59.21,9.46,9.46,0,0,0,7.56-3,9.56,9.56,0,0,0,1.95-3.24c1.86-5,0-9-2.71-15.91a10.19,10.19,0,0,0-17-3.47C319.38,215.92,323,226.41,327.25,231.84Z" transform="translate(0 -54.95)"/><path class="cls-13" d="M333.41,235.65a10.83,10.83,0,0,0,1.59.21,9.46,9.46,0,0,0,7.56-3,11.25,11.25,0,0,0-2.25-1.75A14.73,14.73,0,0,0,333.41,235.65Z" transform="translate(0 -54.95)"/><path class="cls-19" d="M355.94,235.91c-.68,4.9-11.38,6.73-11.38,6.73s-5.28,2.4-5.5.31c2.19-2.53,2.43-4.74,1.67-6.67a9.62,9.62,0,0,0-2.15-3.11,19.56,19.56,0,0,0-1.56-1.44l3.27-13.4C342.64,223.42,350.68,235.19,355.94,235.91Z" transform="translate(0 -54.95)"/><path class="cls-7" d="M325.41,206.42s-2.29-.29-4,4c-1.48,3.59,2,4.37,1.85,8.19s3.33,5.93,3.33,5.93,2.94,2.53,5.43,1.16c0,0,3.26,1.6,4.12,4.39s5.91-2.25,10.46-1.48c0,0,3.07-2.88,2.85-9.86a24.27,24.27,0,0,0-2.19-8.76,11.9,11.9,0,0,0-6.53-6.48C335.49,201.17,326.38,202.93,325.41,206.42Z" transform="translate(0 -54.95)"/><path class="cls-19" d="M332.61,223.62a4.8,4.8,0,0,1-.9,4c-1.11,1.21-2.89-.33-3.62-2.45-.62-1.89-.84-4.85.79-5.18S332.26,221.58,332.61,223.62Z" transform="translate(0 -54.95)"/><path class="cls-9" d="M340.29,237.7a20.36,20.36,0,0,1,10.47-4.88,7.64,7.64,0,0,1,8.08,4.88l-17.94,3.63Z" transform="translate(0 -54.95)"/><path class="cls-19" d="M343.34,275.56,336,276.65a28.48,28.48,0,0,0-5.1-1.09,33.47,33.47,0,0,0-5.65,0S322,276.8,322,280c0,0,7.72,2.07,10.68.83l10.69-.83Z" transform="translate(0 -54.95)"/><path class="cls-13" d="M343.34,275.56,336,276.65a28.48,28.48,0,0,0-5.1-1.09,33.47,33.47,0,0,0-5.65,0S322,276.8,322,280c0,0,7.72,2.07,10.68.83l10.69-.83Z" transform="translate(0 -54.95)"/><path class="cls-9" d="M331.46,240q2.24,6.24,4,12c.76,2.38,1.45,4.71,2.08,7,.54,1.89,1,3.72,1.49,5.5.22.85.44,1.7.65,2.54,1.15,4.6,2.08,8.81,2.81,12.51a165.71,165.71,0,0,1,2.7,17.63l41-5.13c-1.42-7.05-2.53-13.2-4.08-19.84-.85-3.64-1.83-7.42-3.08-11.57-.88-3-1.9-6.15-3.12-9.59-4.11-11.81-7.91-15.08-7.91-15.08C352.26,233.38,331.46,240,331.46,240Z" transform="translate(0 -54.95)"/><path class="cls-19" d="M317.82,276.32l-7.31,1.1a28,28,0,0,0-5.1-1.1,34.74,34.74,0,0,0-5.65,0s-3.31,1.24-3.31,4.41c0,0,7.72,2.07,10.69.83l10.68-.83Z" transform="translate(0 -54.95)"/><polygon class="cls-9" points="365.1 345.81 348.5 346.91 346.06 339.73 364.35 338.88 365.1 345.81"/><polygon class="cls-20" points="365.1 345.81 348.5 346.91 346.06 339.73 364.35 338.88 365.1 345.81"/><polygon class="cls-9" points="320.44 345.81 303.84 346.91 301.4 339.73 319.69 338.88 320.44 345.81"/><polygon class="cls-20" points="320.44 345.81 303.84 346.91 301.4 339.73 319.69 338.88 320.44 345.81"/><polygon points="386.32 237.63 367.83 240.06 367.23 237.33 385.75 234.64 386.32 237.63"/><polygon points="365.69 237.35 365.92 240.06 348.83 242.41 348.83 239.73 365.69 237.35"/><polygon points="347.77 239.88 347.77 242.41 345.29 242.74 345.29 240.29 347.77 239.88"/><path class="cls-13" d="M335.47,252c.76,2.38,1.45,4.71,2.08,7,.54,1.89,1,3.72,1.49,5.5,1.28-7-1.05-15.37-1.05-15.37Z" transform="translate(0 -54.95)"/><path class="cls-19" d="M332.7,242.36c-3.34.67-5.07,23.87-5.81,26.94-.65,2.68-16.38,8.12-16.38,8.12v3.77s17.4-1.21,21.46-2.87,6.56-24.59,6.56-24.59Z" transform="translate(0 -54.95)"/><g class="cls-21"><path class="cls-22" d="M331.46,240q2.24,6.24,4,12c.76,2.38,1.45,4.71,2.08,7,.54,1.89,1,3.72,1.49,5.5.22.85.44,1.7.65,2.54,1.15,4.6,2.08,8.81,2.81,12.51a165.71,165.71,0,0,1,2.7,17.63l41-5.13c-1.42-7.05-2.53-13.2-4.08-19.84-.85-3.64-1.83-7.42-3.08-11.57-.88-3-1.9-6.15-3.12-9.59-4.11-11.81-7.91-15.08-7.91-15.08C352.26,233.38,331.46,240,331.46,240Z" transform="translate(0 -54.95)"/></g><path class="cls-9" d="M331.46,240c-3.06,1-4.57,21-4.57,21l11.1,1.54,2.3-8.22s-.92-3.88-2.24-7.95C336.14,240.4,331.46,240,331.46,240Z" transform="translate(0 -54.95)"/></g><path class="cls-7" d="M403.13,415.56a3.52,3.52,0,1,1,3.51,3.52A3.51,3.51,0,0,1,403.13,415.56Z" transform="translate(0 -54.95)"/><path class="cls-8" d="M403.13,415.56a3.52,3.52,0,1,1,3.51,3.52A3.51,3.51,0,0,1,403.13,415.56Z" transform="translate(0 -54.95)"/><path class="cls-7" d="M318.52,415.56a3.52,3.52,0,1,1,3.52,3.52A3.51,3.51,0,0,1,318.52,415.56Z" transform="translate(0 -54.95)"/><path class="cls-8" d="M318.52,415.56a3.52,3.52,0,1,1,3.52,3.52A3.51,3.51,0,0,1,318.52,415.56Z" transform="translate(0 -54.95)"/><path class="cls-20" d="M404.89,415.56a1.76,1.76,0,1,1,1.75,1.76A1.75,1.75,0,0,1,404.89,415.56Z" transform="translate(0 -54.95)"/><circle class="cls-20" cx="322.04" cy="360.61" r="1.76"/><path class="cls-7" d="M361.43,400.14V362.33h5.82v37.81c22.64.58,36.4,8.5,39.16,10.23a1.11,1.11,0,0,1,.51.94v3.14a1.11,1.11,0,0,1-1.11,1.11h0a1.11,1.11,0,0,1-1-.56l-1.34-2.36a127.51,127.51,0,0,0-36.25-6v6.22a1.44,1.44,0,0,1-1.44,1.43h-2.94a1.44,1.44,0,0,1-1.44-1.43v-6.22a127.51,127.51,0,0,0-36.25,6L323.84,415a1.11,1.11,0,0,1-1,.56h0a1.11,1.11,0,0,1-1.11-1.11v-3.14a1.11,1.11,0,0,1,.51-.94C325,408.64,338.79,400.72,361.43,400.14Z" transform="translate(0 -54.95)"/><path class="cls-13" d="M361.43,400.14V362.33h5.82v37.81c22.64.58,36.4,8.5,39.16,10.23a1.11,1.11,0,0,1,.51.94v3.14a1.11,1.11,0,0,1-1.11,1.11h0a1.11,1.11,0,0,1-1-.56l-1.34-2.36a127.51,127.51,0,0,0-36.25-6v6.22a1.44,1.44,0,0,1-1.44,1.43h-2.94a1.44,1.44,0,0,1-1.44-1.43v-6.22a127.51,127.51,0,0,0-36.25,6L323.84,415a1.11,1.11,0,0,1-1,.56h0a1.11,1.11,0,0,1-1.11-1.11v-3.14a1.11,1.11,0,0,1,.51-.94C325,408.64,338.79,400.72,361.43,400.14Z" transform="translate(0 -54.95)"/><rect class="cls-7" x="362.43" y="412.05" width="3.82" height="7.03" rx="0.77" transform="translate(728.68 776.17) rotate(-180)"/><rect class="cls-8" x="362.43" y="412.05" width="3.82" height="7.03" rx="0.77" transform="translate(728.68 776.17) rotate(-180)"/><path class="cls-9" d="M318.31,325.11h92.05a0,0,0,0,1,0,0v4.78a7.91,7.91,0,0,1-7.91,7.91H326.23a7.91,7.91,0,0,1-7.91-7.91v-4.78A0,0,0,0,1,318.31,325.11Z" transform="translate(728.68 607.97) rotate(-180)"/><path class="cls-7" d="M377.54,293.69H326.86a4,4,0,0,0-3.95,5L332,337.81h2.09l-7.72-34.32a4.05,4.05,0,0,1,4-4.94h46.2Z" transform="translate(0 -54.95)"/><path class="cls-7" d="M358.36,339.18v33.08a1.93,1.93,0,0,0,1.92,1.92h8.11a1.91,1.91,0,0,0,1.92-1.92V339.18Z" transform="translate(0 -54.95)"/><rect class="cls-13" x="358.36" y="284.22" width="11.96" height="13.74"/><path class="cls-7" d="M315.8,335.77v4a2,2,0,0,0,2,2h93a2,2,0,0,0,2-2v-4a2,2,0,0,0-2-2h-93A2,2,0,0,0,315.8,335.77Z" transform="translate(0 -54.95)"/><path class="cls-7" d="M358.6,337.81h54.28s17.24-28.68,17.24-76.07V244.33a13,13,0,0,0-13-13h-23A12.94,12.94,0,0,0,381.2,244C380.53,268.38,376.93,321.26,358.6,337.81Z" transform="translate(0 -54.95)"/><path class="cls-20" d="M370.54,337.81h39.88a4.13,4.13,0,0,0,3.67-2.22c3.92-7.57,16-34.15,16-73.85V244.33a13,13,0,0,0-12.95-13H397.28A13,13,0,0,0,384.33,244c-.6,21.81-3.53,66.34-17.22,87.39A4.14,4.14,0,0,0,370.54,337.81Z" transform="translate(0 -54.95)"/><path class="cls-13" d="M315.8,335.77v4a2,2,0,0,0,2,2h41.7a2.73,2.73,0,0,0,2.73-2.73v-2.53a2.73,2.73,0,0,0-2.73-2.73H317.82A2,2,0,0,0,315.8,335.77Z" transform="translate(0 -54.95)"/></g></svg>