<svg xmlns="http://www.w3.org/2000/svg" viewBox="0 0 705.41 401.1"><defs><style>.cls-1{fill:#bcbcbc;}.cls-2{opacity:0.6;}.cls-3{fill:#f5f5f5;}.cls-4{fill:#e0e0e0;}.cls-5{fill:#ebebeb;}.cls-6{fill:#fafafa;}.cls-7{fill:#263238;}.cls-8{fill:#455a64;}.cls-9{fill:#ff725e;}.cls-10,.cls-14{opacity:0.3;}.cls-11{fill:#fff;}.cls-12{fill:#ffbe9d;}.cls-13{fill:#eb996e;}.cls-14{isolation:isolate;}</style></defs><g id="Layer_2" data-name="Layer 2"><rect class="cls-1" width="705.41" height="401.1"/></g><g id="Layer_1" data-name="Layer 1"><g id="Background_Complete" data-name="Background Complete" class="cls-2"><path class="cls-3" d="M562.92,157.12H705.41L682.2,173.87v33a6.88,6.88,0,0,1-6.88,6.88H562.92a6.88,6.88,0,0,1-6.88-6.88h0V164A6.88,6.88,0,0,1,562.92,157.12Z"/><path class="cls-4" d="M568.86,180.41c0,.14,21.49.25,48,.25s48-.11,48-.25-21.49-.25-48-.25S568.86,180.27,568.86,180.41Z"/><path class="cls-4" d="M568.86,193.06c0,.14,21.49.25,48,.25s48-.11,48-.25-21.49-.25-48-.25S568.86,192.93,568.86,193.06Z"/><rect class="cls-4" x="339.84" y="35.52" width="6.67" height="22.34"/><rect class="cls-4" x="284.14" y="32.28" width="6.67" height="25.57"/><rect class="cls-4" x="298.06" y="26.95" width="6.67" height="30.9"/><rect class="cls-4" x="311.99" y="28.65" width="6.67" height="29.21"/><rect class="cls-4" x="325.91" y="18.77" width="6.67" height="39.09"/><rect class="cls-4" x="353.76" y="18.96" width="6.67" height="38.9"/><rect class="cls-4" x="367.69" y="31.73" width="6.67" height="26.12"/><rect class="cls-4" x="381.61" y="20.67" width="6.67" height="37.19"/><rect class="cls-4" x="395.53" y="12.29" width="6.67" height="45.56"/><rect class="cls-4" x="409.46" y="20.48" width="6.67" height="37.38"/><path class="cls-5" d="M591.83,55.79,647,47.36a55.82,55.82,0,1,1-49-47Z"/><path class="cls-4" d="M609.72.49,603,43.23l42-7.88S638.82,11.43,609.72.49Z"/><path class="cls-3" d="M28.75,159.49a27.34,27.34,0,1,1,27.78,27A27.33,27.33,0,0,1,28.75,159.49Zm40.41-.66a13.07,13.07,0,1,0-12.89,13.35,13.08,13.08,0,0,0,12.89-13.35Z"/><path class="cls-4" d="M28.75,159.49a27.44,27.44,0,0,1,26.9-27.91l.23,14.33a13.14,13.14,0,0,0,.39,26.27l.26,14.31A27.43,27.43,0,0,1,28.75,159.49Z"/><path class="cls-5" d="M53.2,129.37a31.26,31.26,0,0,1,32,30.51c0,.21,0,.41,0,.62l-16.7.26c-.13-8.47-6.58-13.8-15-13.66Z"/><rect class="cls-3" x="171.63" y="255.93" width="34.76" height="41.32"/><rect class="cls-4" x="15.76" y="253.23" width="157.07" height="46.61"/><path class="cls-4" d="M207.44,257.15H168.62v-3.92h38.82a2,2,0,0,1,2,2h0A2,2,0,0,1,207.44,257.15Z"/><path class="cls-4" d="M207.44,299.84H168.62v-3.92h38.82a2,2,0,0,1,2,2h0A2,2,0,0,1,207.44,299.84Z"/><rect class="cls-5" x="141.92" y="253.23" width="18.56" height="46.61"/><rect class="cls-5" x="30.7" y="253.75" width="18.56" height="46.61"/><path class="cls-4" d="M206.39,262.76c0,.12-7.52.21-16.8.21s-16.8-.09-16.8-.21,7.52-.21,16.8-.21S206.39,262.65,206.39,262.76Z"/><path class="cls-4" d="M206.39,269c0,.11-7.52.2-16.8.2s-16.8-.09-16.8-.2,7.52-.21,16.8-.21S206.39,268.84,206.39,269Z"/><path class="cls-4" d="M206.39,276.59c0,.11-7.52.2-16.8.2s-16.8-.09-16.8-.2,7.52-.21,16.8-.21S206.39,276.49,206.39,276.59Z"/><path class="cls-4" d="M206.39,284.21c0,.12-7.52.21-16.8.21s-16.8-.09-16.8-.21,7.52-.2,16.8-.2S206.39,284.1,206.39,284.21Z"/><path class="cls-4" d="M206.39,291.84c0,.12-7.52.21-16.8.21s-16.8-.09-16.8-.21,7.52-.2,16.8-.2S206.39,291.73,206.39,291.84Z"/><rect class="cls-5" x="61.28" y="272.39" width="70.66" height="8.39"/><rect class="cls-6" x="170.75" y="300.76" width="35.29" height="25.18"/><rect class="cls-3" x="20.96" y="299.84" width="150.18" height="27"/><path class="cls-3" d="M170.05,301.67H208a.91.91,0,0,0,.91-.91h0a.93.93,0,0,0-.91-.92H170.05Z"/><path class="cls-3" d="M170,325h38.42a.42.42,0,0,1,.42.42h0v1a.42.42,0,0,1-.42.42H170V325Z"/><path class="cls-4" d="M206,305.54c0,.11-7.82.21-17.45.21s-17.45-.1-17.45-.21,7.81-.21,17.45-.21S206,305.43,206,305.54Z"/><path class="cls-4" d="M206,310.3c0,.12-7.82.21-17.45.21s-17.45-.09-17.45-.21,7.81-.2,17.45-.2S206,310.19,206,310.3Z"/><path class="cls-4" d="M206,315.07c0,.11-7.82.2-17.45.2s-17.45-.09-17.45-.2,7.81-.21,17.45-.21S206,315,206,315.07Z"/><path class="cls-4" d="M206,319.83c0,.11-7.82.2-17.45.2s-17.45-.09-17.45-.2,7.81-.21,17.45-.21S206,319.71,206,319.83Z"/><rect class="cls-5" x="175.37" y="329.24" width="36.02" height="68.25"/><rect class="cls-4" x="6.3" y="326.84" width="169.07" height="74"/><path class="cls-4" d="M214.21,400.84H170.75V396h43.46a2.42,2.42,0,0,1,2.4,2.4h0A2.39,2.39,0,0,1,214.21,400.84Z"/><path class="cls-4" d="M170.75,326.84H215.5a1.1,1.1,0,0,1,1.1,1.1h0v2.6a1.1,1.1,0,0,1-1.1,1.1H170.75v-4.8Z"/><path class="cls-4" d="M211.39,338.39c0,.12-8.06.21-18,.21s-18-.09-18-.21,8.06-.2,18-.2S211.39,338.28,211.39,338.39Z"/><path class="cls-4" d="M211.39,347.15c0,.11-8.06.2-18,.2s-18-.09-18-.2,8.06-.21,18-.21S211.39,347,211.39,347.15Z"/><path class="cls-4" d="M211.39,355.9c0,.11-8.06.21-18,.21s-18-.1-18-.21,8.06-.21,18-.21S211.39,355.79,211.39,355.9Z"/><path class="cls-4" d="M211.39,364.65c0,.12-8.06.21-18,.21s-18-.09-18-.21,8.06-.2,18-.2S211.39,364.54,211.39,364.65Z"/><path class="cls-4" d="M211.39,373.41c0,.11-8.06.2-18,.2s-18-.09-18-.2,8.06-.21,18-.21S211.39,373.29,211.39,373.41Z"/><path class="cls-4" d="M211.39,382.16c0,.11-8.06.21-18,.21s-18-.1-18-.21,8.06-.21,18-.21S211.39,382.05,211.39,382.16Z"/><path class="cls-4" d="M211.39,390.91c0,.12-8.06.21-18,.21s-18-.09-18-.21,8.06-.2,18-.2S211.39,390.8,211.39,390.91Z"/><path class="cls-5" d="M64.15,367.89V372c0,5-2.48,7.79-7.26,7.79S49.63,377,49.63,372V355.9c0-5,2.48-7.8,7.26-7.8s7.26,2.84,7.26,7.8v3h-4.6v-3.31c0-2.22-1-3.06-2.52-3.06s-2.53.84-2.53,3.06v16.73c0,2.22,1,3,2.53,3s2.52-.79,2.52-3v-4.43Z"/><path class="cls-5" d="M66.72,355.9c0-5,2.61-7.8,7.39-7.8s7.39,2.84,7.39,7.8V372c0,5-2.61,7.79-7.39,7.79S66.72,377,66.72,372Zm4.87,16.42c0,2.22,1,3.06,2.52,3.06s2.52-.84,2.52-3.06V355.59c0-2.22-1-3.06-2.52-3.06s-2.52.84-2.52,3.06Z"/><path class="cls-5" d="M84.64,348.49h4.87v26.56h8v4.44H84.64Z"/><path class="cls-5" d="M99.27,355.9c0-5,2.61-7.8,7.39-7.8s7.4,2.84,7.4,7.8V372c0,5-2.61,7.79-7.4,7.79S99.27,377,99.27,372Zm4.87,16.42c0,2.22,1,3.06,2.52,3.06s2.53-.84,2.53-3.06V355.59c0-2.22-1-3.06-2.53-3.06s-2.52.84-2.52,3.06Z"/><path class="cls-5" d="M121.83,348.49V372.4c0,2.21,1,3,2.52,3s2.52-.8,2.52-3V348.49h4.61v23.6c0,5-2.48,7.79-7.26,7.79S117,377,117,372.09v-23.6Z"/><path class="cls-5" d="M145,379.49a9.47,9.47,0,0,1-.45-3.81v-4.87c0-2.88-1-3.94-3.18-3.94h-1.69v12.62h-4.87v-31h7.35c5,0,7.22,2.35,7.22,7.13v2.43c0,3.19-1,5.27-3.19,6.29,2.44,1,3.23,3.36,3.23,6.59v4.79a9.07,9.07,0,0,0,.54,3.76Zm-5.32-26.56v9.51h1.91c1.81,0,2.92-.79,2.92-3.27v-3.06c0-2.21-.75-3.18-2.48-3.18Z"/><path class="cls-4" d="M63.1,310.49H59.55l.19-.92h8.15l-.2.92H64.15l-1.83,9.14h-1Z"/><path class="cls-4" d="M74.73,312.06l-5.52,8.54c-.94,1.44-1.64,1.89-2.73,1.89a2.44,2.44,0,0,1-1.8-.67l.54-.75a1.83,1.83,0,0,0,1.34.55c.65,0,1.15-.31,1.74-1.23l.53-.8L67,312.07h1l1.6,6.42,4.13-6.44Z"/><path class="cls-4" d="M83.13,315.19a4.25,4.25,0,0,1-4,4.49h-.27A2.85,2.85,0,0,1,76,318l-.86,4.37h-1l2.06-10.35h1l-.24,1.21a3.8,3.8,0,0,1,3-1.27,3.06,3.06,0,0,1,3.2,2.89Zm-1,.06a2.22,2.22,0,0,0-2.06-2.37,2.06,2.06,0,0,0-.43,0,3.3,3.3,0,0,0-3.3,3.3c0,.1,0,.2,0,.3a2.2,2.2,0,0,0,2,2.36,1.84,1.84,0,0,0,.47,0,3.3,3.3,0,0,0,3.27-3.33,2.35,2.35,0,0,0,0-.26Z"/><path class="cls-4" d="M84.32,316.49A4.29,4.29,0,0,1,88.4,312h.29c2.1,0,3.44,1.24,3.44,3.19a4.3,4.3,0,0,1-4.09,4.5h-.28a3.1,3.1,0,0,1-3.42-2.76A2.16,2.16,0,0,1,84.32,316.49Zm6.79-1.24a2.22,2.22,0,0,0-2.06-2.37,2.06,2.06,0,0,0-.43,0,3.33,3.33,0,0,0-3.29,3.37c0,.06,0,.12,0,.18a2.2,2.2,0,0,0,2,2.36,2.17,2.17,0,0,0,.44,0,3.31,3.31,0,0,0,3.29-3.33C91.12,315.39,91.11,315.32,91.11,315.25Z"/><path class="cls-4" d="M101.91,312.06l-1.32,6.64c-.53,2.68-1.94,3.78-4.4,3.78a4.85,4.85,0,0,1-3.36-1.13l.6-.78a4,4,0,0,0,2.84,1,3,3,0,0,0,3.27-2.7h0l.18-.83a3.89,3.89,0,0,1-3,1.29c-2,0-3.34-1.16-3.34-3A4.18,4.18,0,0,1,97.45,312h.24a2.89,2.89,0,0,1,3,1.73l.32-1.67Zm-1.72,3c0-1.38-.93-2.2-2.5-2.2A3.2,3.2,0,0,0,94.4,316v.21c0,1.38.92,2.2,2.5,2.2a3.21,3.21,0,0,0,3.29-3.13v-.21Z"/><path class="cls-4" d="M108.58,312l-.19,1h-.28c-1.61,0-2.69.92-3.07,2.8l-.76,3.84h-1l1.5-7.56h1l-.31,1.41A3.42,3.42,0,0,1,108.58,312Z"/><path class="cls-4" d="M117.27,312.06l-1.51,7.56h-1l.24-1.19a3.82,3.82,0,0,1-2.94,1.26,3,3,0,0,1-3.29-2.79,1.86,1.86,0,0,1,0-.41,4.25,4.25,0,0,1,4-4.48H113a2.84,2.84,0,0,1,2.88,1.64l.32-1.58Zm-1.7,3.19a2.22,2.22,0,0,0-2.06-2.37,2.06,2.06,0,0,0-.43,0,3.32,3.32,0,0,0-3.28,3.36c0,.06,0,.13,0,.19a2.2,2.2,0,0,0,2,2.36,2.06,2.06,0,0,0,.43,0,3.31,3.31,0,0,0,3.29-3.33c0-.07,0-.14,0-.21Z"/><path class="cls-4" d="M127.06,315.19a4.25,4.25,0,0,1-4,4.49h-.27A2.85,2.85,0,0,1,119.9,318l-.86,4.37h-1l2-10.35h1l-.24,1.21a3.79,3.79,0,0,1,2.94-1.27,3.06,3.06,0,0,1,3.27,2.84C127.06,315,127.07,315.07,127.06,315.19Zm-1,.06a2.22,2.22,0,0,0-2.06-2.37,2.06,2.06,0,0,0-.43,0,3.29,3.29,0,0,0-3.31,3.29c0,.1,0,.21,0,.31a2.2,2.2,0,0,0,2,2.36,2.34,2.34,0,0,0,.46,0,3.29,3.29,0,0,0,3.29-3.31,2.62,2.62,0,0,0,0-.28Z"/><path class="cls-4" d="M136.21,314.49a4.91,4.91,0,0,1-.08.86l-.86,4.3h-1l.87-4.31a5.38,5.38,0,0,0,.07-.69c0-1.08-.65-1.7-2-1.7a2.93,2.93,0,0,0-3.07,2.65l-.81,4h-1L130.46,309h1l-.85,4.24A3.71,3.71,0,0,1,133.5,312C135.27,312,136.21,312.92,136.21,314.49Z"/><path class="cls-4" d="M145.77,312.06l-5.5,8.54c-.94,1.44-1.64,1.88-2.73,1.88a2.44,2.44,0,0,1-1.8-.67l.55-.75a1.8,1.8,0,0,0,1.33.55c.65,0,1.15-.31,1.74-1.23l.54-.8L138,312.06h1l1.56,6.44,4.13-6.44Z"/><path class="cls-3" d="M168.55,1.28H15.16l25,18V54.75a7.4,7.4,0,0,0,7.39,7.41h121A7.41,7.41,0,0,0,176,54.75h0V8.69a7.41,7.41,0,0,0-7.41-7.41Z"/><path class="cls-4" d="M162.15,26.35c0,.15-23.13.27-51.66.27s-51.67-.13-51.67-.27,23.13-.27,51.67-.27S162.15,26.2,162.15,26.35Z"/><path class="cls-4" d="M162.15,40c0,.15-23.13.27-51.66.27S58.82,40.12,58.82,40,82,39.7,110.49,39.7,162.15,39.82,162.15,40Z"/></g><g id="Table" class="cls-2"><path class="cls-7" d="M700.54,400.84c0,.15-156.84.26-350.25.26S0,401,0,400.84s156.8-.26,350.29-.26S700.54,400.7,700.54,400.84Z"/></g><g id="Plants" class="cls-2"><path class="cls-8" d="M634.72,349.8s-26.51-30.5-36.51-61-5.25-27-5.25-27,13.5,29.64,23.75,43.95,28.56,35.3,28.56,35.3Z"/><path class="cls-8" d="M640,266.49a1.54,1.54,0,0,0-2.87,1c1.61,10.72,5.11,35.87,5,52.18-.18,21.19,0,29.38,0,29.38h11s-2-43.8-4.45-57.16C646.94,282.55,643.27,272.15,640,266.49Z"/><path class="cls-8" d="M646,345.49a117.12,117.12,0,0,0,9.08-32.94c.91-7.8-.72-18.34-3.13-32.41a87.58,87.58,0,0,1-1.39-15.59,2.63,2.63,0,0,1,4.94-1.24c1.33,2.38,5.19,10.5,6.17,15.58,2.67,13.89,5.69,20.84,3.38,34s-10.86,33.48-10.86,33.48Z"/><path class="cls-8" d="M656,346.4s29.11-62.55,31.13-71.83,8.87-30.66,9.68-29.45,2,12.51-3.23,25.42-27.64,77.76-27.64,77.76H656"/><path class="cls-7" d="M642.83,343.6A6.59,6.59,0,0,1,642,343c-.51-.39-1.3-.94-2.25-1.72a102.43,102.43,0,0,1-7.82-6.91,131.1,131.1,0,0,1-21.12-27.1,177.31,177.31,0,0,1-14.41-31.22c-1.46-4.15-2.53-7.55-3.22-9.92-.36-1.17-.61-2.1-.78-2.72a5,5,0,0,1-.22-1,6.08,6.08,0,0,1,.34.93l.89,2.69c.76,2.34,1.89,5.72,3.4,9.84A189.26,189.26,0,0,0,611.36,307a136.32,136.32,0,0,0,20.91,27.13c3.11,3.1,5.78,5.45,7.66,7,.93.81,1.69,1.39,2.18,1.81A5.87,5.87,0,0,1,642.83,343.6Z"/><path class="cls-7" d="M646,313.59a11.2,11.2,0,0,1-.26-1.83c-.14-1.3-.32-3-.53-5-.46-4.24-1.18-10.07-2.21-16.48s-2.18-12.18-3.07-16.34c-.43-2-.79-3.66-1.06-4.93a11.32,11.32,0,0,1-.33-1.83,9.85,9.85,0,0,1,.56,1.77c.33,1.15.76,2.82,1.26,4.89,1,4.14,2.22,9.91,3.25,16.34s1.68,12.28,2,16.53c.18,2.13.29,3.85.34,5A9.08,9.08,0,0,1,646,313.59Z"/><path class="cls-7" d="M652.83,262.84a4.69,4.69,0,0,1,.34.8c.23.59.52,1.36.88,2.32s.82,2.25,1.25,3.73,1,3.12,1.41,5l.72,2.94c.25,1,.42,2.11.64,3.22.48,2.22.77,4.63,1.12,7.16A106.62,106.62,0,0,1,658,321.07c-.53,2.5-1,4.88-1.63,7.06-.3,1.09-.55,2.16-.87,3.16s-.63,2-.93,2.89c-.56,1.85-1.23,3.46-1.77,4.89s-1.06,2.65-1.51,3.63l-1,2.25a4.32,4.32,0,0,1-.4.77,4.7,4.7,0,0,1,.29-.82l.92-2.3c.42-1,.92-2.21,1.41-3.65s1.15-3.06,1.68-4.91c.28-.92.58-1.88.89-2.88s.54-2.07.83-3.16c.61-2.18,1-4.55,1.57-7a110.62,110.62,0,0,0,1.18-32.89c-.34-2.52-.61-4.92-1.06-7.13-.22-1.11-.38-2.19-.61-3.21s-.46-2-.68-2.94c-.39-1.88-.92-3.54-1.32-5s-.79-2.72-1.14-3.74-.57-1.76-.76-2.36A4.57,4.57,0,0,1,652.83,262.84Z"/><path class="cls-7" d="M696.42,246.38a.66.66,0,0,1,0,.28,6.63,6.63,0,0,1-.13.81c-.13.71-.29,1.77-.57,3.12a113.6,113.6,0,0,1-3,11.26c-1.5,4.7-3.43,10.2-5.79,16.26s-5.08,12.65-7.66,19.67-4.65,13.86-6.55,20.06-3.66,11.8-5.39,16.4a104,104,0,0,1-4.59,10.7c-.6,1.24-1.14,2.16-1.48,2.8l-.41.71a1,1,0,0,1-.16.24,1.48,1.48,0,0,1,.1-.27l.36-.74c.31-.66.81-1.6,1.37-2.85,1.17-2.48,2.75-6.12,4.4-10.74s3.4-10.19,5.26-16.41,3.87-13.08,6.5-20.11,5.34-13.63,7.72-19.67,4.41-11.52,5.9-16.19,2.51-8.51,3.14-11.18c.32-1.33.52-2.38.69-3.08.08-.32.14-.58.19-.8A.88.88,0,0,1,696.42,246.38Z"/><path class="cls-8" d="M606.68,232.56a2.51,2.51,0,0,0-4.13,2.56,71.45,71.45,0,0,0,3.66,9.4c4,8.51,15.76,39,21.26,55.77s13.25,48,13.25,48l11.75-1.9s-10.75-51.35-21.2-69.9C622.78,261.66,614.34,240.18,606.68,232.56Z"/><path class="cls-7" d="M630.68,310.77a6.76,6.76,0,0,1,.61,1.41c.35.92.82,2.26,1.35,3.94,1.08,3.35,2.41,8,3.74,13.23s2.44,9.94,3.21,13.37c.36,1.62.65,3,.89,4.07a7.67,7.67,0,0,1,.24,1.51,7.25,7.25,0,0,1-.48-1.45c-.28-1.07-.64-2.42-1.07-4l-3.39-13.36c-1.33-5.2-2.59-9.89-3.56-13.26l-1.16-4A8,8,0,0,1,630.68,310.77Z"/><path class="cls-7" d="M646.62,347.35a1.55,1.55,0,0,1-.06-.31,7.29,7.29,0,0,0-.14-.93c-.12-.81-.23-2-.48-3.56-.43-3.08-1.2-7.53-2.46-12.95a188.43,188.43,0,0,0-5.5-18.77c-2.41-7-5.43-14.48-8.86-22.27C622.21,273,615.31,259.22,610.77,249c-2.29-5.09-4.07-9.24-5.24-12.14-.6-1.44-1-2.57-1.32-3.34-.13-.36-.24-.64-.33-.88a1.71,1.71,0,0,1-.09-.3,2.44,2.44,0,0,1,.15.28l.39.85,1.42,3.3c1.24,2.86,3.08,7,5.42,12,4.63,10.15,11.6,23.9,18.52,39.47,3.43,7.8,6.44,15.34,8.83,22.33a179.18,179.18,0,0,1,5.39,18.89q1.46,6.43,2.27,13c.21,1.55.28,2.76.37,3.58,0,.38.05.68.07.93A1,1,0,0,1,646.62,347.35Z"/><path class="cls-7" d="M652.47,346.4a13.62,13.62,0,0,1-.4-2c-.23-1.38-.54-3.2-.91-5.4-.81-4.55-2-10.82-3.82-17.64s-3.75-12.91-5.27-17.27l-1.8-5.14a11.62,11.62,0,0,1-.62-1.92,13.8,13.8,0,0,1,.85,1.83c.5,1.19,1.21,2.93,2,5.1A167.81,167.81,0,0,1,648,321.22q2.26,8.77,3.65,17.73c.34,2.29.59,4.15.72,5.44A13.58,13.58,0,0,1,652.47,346.4Z"/><rect class="cls-9" x="630.72" y="344.71" width="45.86" height="55.87"/><g class="cls-10"><rect x="630.72" y="344.71" width="45.86" height="55.87"/></g><rect class="cls-9" x="621.27" y="344.71" width="40.68" height="55.87"/><path class="cls-8" d="M65.8,325.29c-7.82-5-18.64-5.1-26.24.21-7.22,5.05-10.89,14.23-10.57,23s4.59,19.55,12.56,24.18l23.4-.1A31.44,31.44,0,0,0,77.83,349C78.18,339.73,73.61,330.29,65.8,325.29Z"/><path class="cls-7" d="M54.27,373.56a10.3,10.3,0,0,1-.14-2c0-1.44-.1-3.28-.16-5.49-.12-4.63-.3-11-.61-18.09s-.69-13.46-1-18.09c-.13-2.2-.24-4-.33-5.48a11.13,11.13,0,0,1,0-2,11.26,11.26,0,0,1,.32,2c.16,1.29.35,3.16.57,5.47.42,4.62.88,11,1.2,18.09s.41,13.49.39,18.13c0,2.32,0,4.19-.08,5.49A10.84,10.84,0,0,1,54.27,373.56Z"/><path class="cls-7" d="M31.35,346.54c0,.2-1.29.27-2.84.14s-2.79-.4-2.78-.6,1.29-.27,2.84-.15S31.37,346.33,31.35,346.54Z"/><path class="cls-7" d="M31.79,338.64c-.09.19-1.18-.11-2.45-.68s-2.23-1.17-2.15-1.36,1.18.12,2.45.68S31.87,338.49,31.79,338.64Z"/><path class="cls-7" d="M35.85,332.78c-.11.17-1.34-.41-2.62-1.47s-2.09-2.17-1.94-2.3,1.17.69,2.41,1.72S36,332.6,35.85,332.78Z"/><path class="cls-7" d="M39.94,327.25c-.19.08-.78-.84-1.32-2.06s-.83-2.28-.64-2.37.78.84,1.32,2.07S40.12,327.17,39.94,327.25Z"/><path class="cls-7" d="M46.35,323.33c-.19.08-.82-.9-1.25-2.26s-.46-2.54-.26-2.57.57,1,1,2.34S46.54,323.24,46.35,323.33Z"/><path class="cls-7" d="M57,318.9c.2.07.08.91-.26,1.88s-.78,1.69-1,1.62-.08-.9.26-1.87S56.85,318.83,57,318.9Z"/><path class="cls-7" d="M65,322.31c.14.15-.37.85-1.14,1.56s-1.5,1.16-1.64,1,.37-.85,1.13-1.56S64.84,322.16,65,322.31Z"/><path class="cls-7" d="M72,326.82c.12.17-.5.79-1.38,1.39s-1.69.94-1.81.77.51-.79,1.39-1.39S71.85,326.65,72,326.82Z"/><path class="cls-7" d="M76.92,333.54c.08.19-.89.79-2.18,1.34s-2.4.84-2.48.65.9-.79,2.19-1.33S76.84,333.35,76.92,333.54Z"/><path class="cls-7" d="M78.88,340.88c0,.2-1,.5-2.23.65s-2.28.12-2.31-.09,1-.49,2.22-.65S78.85,340.67,78.88,340.88Z"/><path class="cls-7" d="M79.89,349.91c-.08.19-1.14-.09-2.36-.62s-2.16-1.12-2.08-1.31,1.15.09,2.37.62S80,349.72,79.89,349.91Z"/><path class="cls-7" d="M79,357.66c-.07.19-1.41-.13-2.81-1.05s-2.23-2-2.09-2.15,1.17.66,2.5,1.52S79.07,357.49,79,357.66Z"/><path class="cls-7" d="M75,364.71c-.12.16-1.19-.46-2.21-1.57s-1.57-2.21-1.41-2.33,1,.77,2,1.82S75.1,364.55,75,364.71Z"/><path class="cls-7" d="M36.66,365.54c.09.18-1,1-2.51,1.72s-2.75,1.23-2.88,1.07,1-1,2.5-1.73S36.56,365.36,36.66,365.54Z"/><path class="cls-7" d="M33.16,359.16c.08.19-.82.78-2,1.32s-2.23.83-2.32.64.82-.78,2-1.32S33.07,359,33.16,359.16Z"/><path class="cls-7" d="M30.59,353.49c0,.2-1.08.53-2.48.73s-2.54.19-2.57,0,1.08-.53,2.47-.72S30.56,353.3,30.59,353.49Z"/><path class="cls-7" d="M39,350.39c.06.2-1,.7-2.45.86S34,351.16,34,351s1.14-.29,2.5-.45S39,350.19,39,350.39Z"/><path class="cls-7" d="M46,343.42c.06.19-.8.63-2,.74S42,344,42,343.82s.92-.29,2-.4S46,343.22,46,343.42Z"/><path class="cls-7" d="M47.37,337.83c-.07.2-1,.05-2.08-.32s-1.9-.83-1.83-1,1-.05,2.08.33S47.44,337.64,47.37,337.83Z"/><path class="cls-7" d="M49.94,332.18c-.14.15-.78-.27-1.24-1.07s-.5-1.55-.3-1.6.54.53,1,1.23S50.09,332,49.94,332.18Z"/><path class="cls-7" d="M46.84,355.31c0,.2-.75.57-1.8.83a7,7,0,0,1-1.51.22l-.14-.44c.27,0,.44,0,.48.05s-.08.21-.3.38l-.15-.44a6.72,6.72,0,0,1,1.45-.5C45.91,355.16,46.79,355.11,46.84,355.31Z"/><path class="cls-7" d="M48.27,365.22c.07.19-1,.77-2.3,1.3s-2.49.8-2.56.61,1-.78,2.29-1.3S48.21,365,48.27,365.22Z"/><path class="cls-7" d="M40.37,360.82c.07.19-.62.6-1.53.91s-1.7.41-1.77.21.62-.6,1.53-.91S40.27,360.62,40.37,360.82Z"/><path class="cls-7" d="M41,340.66c0,.2-1.24.08-2.61-.41s-2.38-1.15-2.29-1.33,1.2.15,2.54.62S41,340.49,41,340.66Z"/><path class="cls-7" d="M60.13,338.49c.12.17-.55.81-1.49,1.43s-1.8,1-1.92.81.56-.81,1.5-1.43S60,338.29,60.13,338.49Z"/><path class="cls-7" d="M61.18,348.41c0,.2-.67.52-1.58.71s-1.68.18-1.73,0,.67-.52,1.58-.71S61.13,348.21,61.18,348.41Z"/><path class="cls-7" d="M62.39,359.6c-.09.18-1.11-.1-2.27-.64a4.87,4.87,0,0,1-2-1.32c0-.19,1.11.1,2.27.64S62.47,359.41,62.39,359.6Z"/><path class="cls-7" d="M59.82,370.49c-.16.14-.82-.4-1.47-1.2s-1-1.55-.89-1.68.81.41,1.47,1.21S60,370.35,59.82,370.49Z"/><path class="cls-7" d="M59.27,331.14c.13.16-.31.71-1.06,1.08s-1.44.4-1.49.2.49-.52,1.16-.86S59.17,331,59.27,331.14Z"/><path class="cls-7" d="M68.69,341.17c.07.19-.8.67-2,.84s-2.15-.06-2.14-.26.93-.33,2-.48S68.62,341,68.69,341.17Z"/><path class="cls-7" d="M66.82,332.17c.09.18-.77.8-2,1.19s-2.28.39-2.31.19.92-.53,2.08-.91S66.72,332,66.82,332.17Z"/><path class="cls-7" d="M70.74,355.12c0,.2-1.48.33-3.26,0s-3.11-1-3-1.15a12.14,12.14,0,0,1,3.18.41C69.37,354.68,70.74,354.91,70.74,355.12Z"/><path class="cls-7" d="M67.27,368.2c-.12.16-1.21-.48-2.29-1.57s-1.71-2.14-1.58-2.3,1,.72,2.09,1.78S67.38,368,67.27,368.2Z"/><path class="cls-7" d="M51.91,321.49a33.8,33.8,0,0,0-6.55,5.18,32,32,0,0,0-8.16,18,40.92,40.92,0,0,0,.49,11.05,89.83,89.83,0,0,0,2.07,8.87c.72,2.49,1.38,4.49,1.82,5.88a13.91,13.91,0,0,1,.63,2.18,11.27,11.27,0,0,1-.9-2.08c-.53-1.36-1.27-3.34-2.05-5.83a73.8,73.8,0,0,1-2.24-8.9,39.3,39.3,0,0,1-.56-11.25A31.43,31.43,0,0,1,45,326.27a23.27,23.27,0,0,1,4.88-3.78,13.3,13.3,0,0,1,1.5-.78A2.18,2.18,0,0,1,51.91,321.49Z"/><path class="cls-7" d="M62.1,373.19c-.17-.09,1.67-2.92,3.35-8a45.42,45.42,0,0,0,2-20.63,38.81,38.81,0,0,0-3.18-11.07,26.33,26.33,0,0,0-5.42-7.56,20.11,20.11,0,0,0-5.32-3.36c-1.38-.57-2.21-.71-2.2-.77a2.08,2.08,0,0,1,.61,0,10,10,0,0,1,1.69.45,18.27,18.27,0,0,1,5.56,3.24,25.51,25.51,0,0,1,5.7,7.65,38.12,38.12,0,0,1,3.3,11.2,43.87,43.87,0,0,1-2.25,20.91c-.42,1.29-1,2.39-1.37,3.39a17.46,17.46,0,0,1-1.24,2.46A16.13,16.13,0,0,1,62.1,373.19Z"/><polygon class="cls-9" points="33.16 371.42 74.34 371.42 74.59 379.66 33.16 379.66 33.16 371.42"/><polygon class="cls-9" points="36.65 375.54 39.02 400.7 69.13 400.7 71.54 375.81 36.65 375.54"/><path class="cls-7" d="M74.59,379.76c0,.21-9.27.37-20.71.37s-20.71-.16-20.71-.37,9.27-.37,20.71-.37S74.59,379.55,74.59,379.76Z"/><path class="cls-7" d="M70.41,387.42a6,6,0,0,1-.88,1.58,23,23,0,0,1-3.2,3.77l-.19.18-.18-.2a59,59,0,0,0-8.08-7.06h.46l-3.58,3.14-4.23,3.66-.23.21-.24-.2-6.87-5.78.4-.05C42.17,388.41,41,389.86,40,391a9.19,9.19,0,0,1-1.4,1.52,11,11,0,0,1,1.15-1.72l3.36-4.49.18-.23.23.18,7,5.66h-.46l4.21-3.7,3.59-3.13.22-.19.24.17a52.67,52.67,0,0,1,8,7.29H66A41,41,0,0,0,70.41,387.42Z"/></g><g id="Device" class="cls-2"><rect class="cls-8" x="114.73" y="86.26" width="465.06" height="307.54" rx="14.57"/><path class="cls-8" d="M99.51,373.93H603.36V383a17.8,17.8,0,0,1-17.8,17.8H117.3A17.8,17.8,0,0,1,99.51,383v-9.07Z"/><polygon class="cls-7" points="301.41 371.05 307.67 380.99 395.65 380.99 401.45 371.05 301.41 371.05"/><path class="cls-7" d="M575.79,371.05c0,.17-103.22.3-230.51.3s-230.55-.13-230.55-.3,103.2-.3,230.55-.3S575.79,370.88,575.79,371.05Z"/><rect class="cls-5" x="128.05" y="103.94" width="436.6" height="258.98" rx="3.27"/><polygon class="cls-11" points="564.18 363.3 127.58 363.3 128.05 123.3 564.18 123.3 564.18 363.3"/><path class="cls-7" d="M163.86,114a3.49,3.49,0,1,1-3.52-3.46h0A3.47,3.47,0,0,1,163.86,114Z"/><path class="cls-7" d="M142.73,114a3.49,3.49,0,1,1-3.52-3.46h.06A3.47,3.47,0,0,1,142.73,114Z"/><path class="cls-7" d="M152.87,114a3.49,3.49,0,1,1-3.49-3.49,3.49,3.49,0,0,1,3.49,3.49Z"/><rect class="cls-7" x="127.58" y="340.12" width="437.07" height="23.18"/><path class="cls-11" d="M144.1,354.39v.74h-3.48v-.58l1.87-1.78a1.3,1.3,0,0,0,.54-1c0-.43-.3-.68-.88-.68a1.34,1.34,0,0,0-1.1.49l-.62-.47a2.18,2.18,0,0,1,1.8-.78c1,0,1.69.51,1.69,1.35a1.88,1.88,0,0,1-.79,1.49l-1.26,1.2Z"/><path class="cls-11" d="M144.57,352.05a.56.56,0,1,1,.56.56h0a.54.54,0,0,1-.55-.53Zm0,2.57a.56.56,0,0,1,1.11-.15.38.38,0,0,1,0,.15.56.56,0,1,1-1.11.15A.38.38,0,0,1,144.57,354.62Z"/><path class="cls-11" d="M147.87,350.41v4.72H147v-4h-1v-.74Z"/><path class="cls-11" d="M153,354.06h-.84v1.07h-.85v-1.07h-2.59v-.57l2.33-3H152l-2.2,2.91h1.55v-.95h.82v.95H153Z"/><rect class="cls-11" x="160.73" y="352.17" width="358.24" height="1.63"/><rect class="cls-9" x="160.46" y="350.41" width="111.95" height="4.36"/><path class="cls-9" d="M276,353a5.45,5.45,0,1,1-5.45-5.45A5.45,5.45,0,0,1,276,353Z"/><path class="cls-11" d="M528,352.94a1.58,1.58,0,0,1-1.58,1.56h-.14c-1.29,0-2-.83-2-2.35a2.24,2.24,0,0,1,2-2.5,2.29,2.29,0,0,1,.37,0,2.46,2.46,0,0,1,1.24.31l-.33.66a1.65,1.65,0,0,0-.89-.23c-.89,0-1.45.55-1.45,1.62h0a1.61,1.61,0,0,1,1.26-.49,1.48,1.48,0,0,1,1.57,1.37Zm-.85,0c0-.49-.37-.8-.94-.8a.86.86,0,0,0-1,.71s0,.07,0,.1c0,.44.35.79,1,.79a.81.81,0,0,0,.93-.67.28.28,0,0,0,0-.09Z"/><path class="cls-11" d="M528.42,351.32a.56.56,0,1,1,1.11-.15.38.38,0,0,1,0,.15.56.56,0,1,1-1.11.15A.38.38,0,0,1,528.42,351.32Zm0,2.57a.56.56,0,1,1,1.11-.15.38.38,0,0,1,0,.15.56.56,0,1,1-1.11.15A.38.38,0,0,1,528.42,353.89Z"/><path class="cls-11" d="M530.09,352c0-1.55.85-2.43,2-2.43s2,.88,2,2.43-.85,2.43-2,2.43S530.09,353.59,530.09,352Zm3.06,0c0-1.14-.44-1.66-1.09-1.66S531,350.9,531,352s.45,1.67,1.09,1.67S533.15,353.18,533.15,352Z"/><path class="cls-11" d="M534.62,352c0-1.55.85-2.43,2-2.43s2,.88,2,2.43-.85,2.43-2,2.43S534.62,353.59,534.62,352Zm3.07,0c0-1.14-.45-1.66-1.1-1.66s-1.08.52-1.08,1.66.44,1.67,1.08,1.67S537.69,353.18,537.69,352Z"/><polygon class="cls-11" points="546.2 351.75 544.56 351.75 544.56 347.04 549.26 347.04 549.26 348.67 546.2 348.67 546.2 351.75"/><polygon class="cls-11" points="549.27 357.89 544.56 357.89 544.56 353.19 546.19 353.19 546.19 356.26 549.27 356.26 549.27 357.89"/><polygon class="cls-11" points="556.76 357.89 552.07 357.89 552.07 356.26 555.13 356.26 555.13 353.18 556.76 353.18 556.76 357.89"/><polygon class="cls-11" points="556.77 351.74 555.14 351.74 555.14 348.67 552.06 348.67 552.06 347.04 556.77 347.04 556.77 351.74"/><polygon class="cls-5" points="187.45 137.57 161.72 137.57 148.85 159.85 161.72 182.14 187.45 182.14 200.32 159.85 187.45 137.57"/><path class="cls-7" d="M163.82,164.22a22.47,22.47,0,0,1-3.14-4.06,7.78,7.78,0,0,1-1.07-4.94,26.38,26.38,0,0,0,.65-2.93c.1-1.38-.48-2.82,0-4.11.76-2,3.47-2.33,5.12-3.72,1.28-1.09,1.91-2.85,3.32-3.76a6.26,6.26,0,0,1,4.27-.58,15.65,15.65,0,0,0,4.37.38q1.51-.33,3-.81a4.1,4.1,0,0,1,3,.21,2,2,0,0,1,.82,2.67c1.69-.78,3.83.54,4.29,2.33a5,5,0,0,1-1.89,4.93,11.07,11.07,0,0,1-5.1,2.08c-5.17,1-10.77.43-15.22-2.37"/><path class="cls-12" d="M187.68,169.72c-.17-3.19-1.06-9.73-1.94-15.64a12.34,12.34,0,0,0-13-10.5h-.64c-6.84.86-9.93,7.15-8.88,14l2,24.55h16.7s-.4-4.31-.4-4.35S188,176.32,187.68,169.72Z"/><path class="cls-13" d="M181.51,177.7a15.4,15.4,0,0,1-8.77-1.87s2.36,4.61,8.9,3.58Z"/><path class="cls-7" d="M183.61,159.74a.93.93,0,0,1-.84,1,.9.9,0,0,1-1-.77h0a.93.93,0,0,1,.84-1,.9.9,0,0,1,1,.77Z"/><path class="cls-7" d="M184.54,157.4c-.11.13-.86-.35-1.88-.28s-1.72.63-1.84.51,0-.28.36-.54a2.61,2.61,0,0,1,1.46-.56,2.48,2.48,0,0,1,1.5.38C184.47,157.13,184.59,157.34,184.54,157.4Z"/><path class="cls-7" d="M174,160.43a1,1,0,0,1-.84,1,.91.91,0,0,1-1-.79,1,1,0,0,1,.84-1A.91.91,0,0,1,174,160.43Z"/><path class="cls-7" d="M174.58,158.26c-.11.13-.86-.35-1.88-.28s-1.72.62-1.84.51,0-.28.36-.54a2.61,2.61,0,0,1,3-.19C174.51,158,174.63,158.2,174.58,158.26Z"/><path class="cls-7" d="M178.76,165.49a6.5,6.5,0,0,1,1.63-.41c.26,0,.5-.11.53-.29a1.32,1.32,0,0,0-.22-.75l-.9-1.92a34.63,34.63,0,0,1-2.07-5A33.72,33.72,0,0,1,180.2,162c.3.67.59,1.32.87,1.93a1.65,1.65,0,0,1,.2,1,.68.68,0,0,1-.4.41,1.64,1.64,0,0,1-.44.09A6.66,6.66,0,0,1,178.76,165.49Z"/><path class="cls-7" d="M174.57,154.26c-.08.28-1.1.22-2.28.45s-2.12.61-2.3.37.08-.38.45-.68a3.77,3.77,0,0,1,1.67-.71,3.7,3.7,0,0,1,1.81.09C174.37,153.93,174.61,154.13,174.57,154.26Z"/><path class="cls-7" d="M184,154.49c-.17.24-.88,0-1.72.09s-1.54.26-1.72,0,0-.35.31-.59a2.36,2.36,0,0,1,1.37-.47,2.48,2.48,0,0,1,1.4.37C183.92,154.14,184,154.37,184,154.49Z"/><path class="cls-12" d="M164.07,162.49c-.12,0-4.63-1-4.18,3.47s5.33,3,5.32,2.9S164.07,162.49,164.07,162.49Z"/><path class="cls-13" d="M163.21,167.34a1.41,1.41,0,0,1-.19.13.81.81,0,0,1-.59.07,2,2,0,0,1-1.07-1.65,2.6,2.6,0,0,1,.11-1.14.89.89,0,0,1,.53-.67.41.41,0,0,1,.48.17c.08.12.06.22.08.22s.09-.08,0-.27a.52.52,0,0,0-.2-.26.59.59,0,0,0-.45-.07,1.13,1.13,0,0,0-.75.78,2.66,2.66,0,0,0-.14,1.28,2,2,0,0,0,1.33,1.83.84.84,0,0,0,.71-.19C163.27,167.49,163.27,167.34,163.21,167.34Z"/><path class="cls-7" d="M185.41,147.91c-.31,1.79-3.95,3.44-7,3.35-2.78-.08-4.16-1.46-6.17-2.44-1.28-.62-1.28-.62-3-.34-1.4.23-2.13,1.88-2.91,3.07,1.5,3.27.89,7.07.25,10.61a1.72,1.72,0,0,1-.45,1.07,1.44,1.44,0,0,1-1.83-.27,5.66,5.66,0,0,1-1.42-2.86,18.68,18.68,0,0,1-.44-7.33,12.57,12.57,0,0,1,3-6.61,12,12,0,0,1,8.19-3.73,14.78,14.78,0,0,1,8.73,2.47,8.79,8.79,0,0,1,3,3"/><path class="cls-13" d="M179.43,167.81l-2.3-1.07a.77.77,0,0,0-.42-.1.64.64,0,0,0-.39.27,2.13,2.13,0,0,0-.26,2.34,1.78,1.78,0,0,0,2.16.79,2.45,2.45,0,0,0,1.27-2.16Z"/><path class="cls-7" d="M178.27,170.21a1.56,1.56,0,0,1-1.35.12,2.14,2.14,0,0,1-1.19-1,2.18,2.18,0,0,1-.15-1.88,2.26,2.26,0,0,1,.56-.84,2.19,2.19,0,0,1,.39-.29.64.64,0,0,1,.6,0c.53.29.88.54,1.23.76.67.45,1.07.76,1,.82s-.5-.13-1.22-.5l-1.23-.64h-.18a2,2,0,0,0-.28.23,1.77,1.77,0,0,0-.42.66,1.82,1.82,0,0,0,1,2.31A5.5,5.5,0,0,0,178.27,170.21Z"/><path class="cls-7" d="M177.56,159.85a3.91,3.91,0,0,0-.24-1.12,4.71,4.71,0,0,0-1.73-2.47,4.48,4.48,0,1,0,0,7.19,4.71,4.71,0,0,0,1.73-2.47c.2-.71.19-1.13.24-1.13s0,.11,0,.31a3.22,3.22,0,0,1-.09.87,4.6,4.6,0,0,1-1.69,2.71,4.92,4.92,0,1,1,0-7.77,4.6,4.6,0,0,1,1.69,2.71,3.22,3.22,0,0,1,.09.87C177.59,159.75,177.58,159.85,177.56,159.85Z"/><path class="cls-7" d="M188.79,159.41a8.6,8.6,0,0,0-.24-1.09,4.55,4.55,0,0,0-1.68-2.4,4.36,4.36,0,1,0,0,7,4.55,4.55,0,0,0,1.68-2.4c.2-.69.19-1.1.24-1.1s0,.1,0,.3a3.45,3.45,0,0,1-.08.85,4.55,4.55,0,0,1-1.65,2.64,4.8,4.8,0,1,1,0-7.58,4.57,4.57,0,0,1,1.65,2.65,3.45,3.45,0,0,1,.08.85C188.82,159.31,188.81,159.41,188.79,159.41Z"/><path class="cls-7" d="M179.63,158.38c-.1.09-.55-.2-1.15-.18s-1,.31-1.14.22.28-.72,1.13-.74S179.76,158.3,179.63,158.38Z"/><path class="cls-7" d="M168.44,159.19c.09.11-.79.91-1.95,1.78a6.69,6.69,0,0,1-2.26,1.36c-.09-.11.79-.91,2-1.78A6.6,6.6,0,0,1,168.44,159.19Z"/><path class="cls-7" d="M261.27,159.63c0,.14-11.57.26-25.84.26s-25.84-.12-25.84-.26,11.57-.26,25.84-.26S261.27,159.49,261.27,159.63Z"/><path class="cls-7" d="M237.36,165c0,.14-6.14.26-13.72.26s-13.72-.12-13.72-.26,6.14-.27,13.72-.27S237.36,164.89,237.36,165Z"/></g><g id="Character" class="cls-2"><path class="cls-9" d="M416.06,199.58a39.38,39.38,0,0,1,18.56,24c4.83,17.28,19.6,62.28,19.6,62.28s8.44,9.93,9.34,17.28-.9,25.14-3.62,28.46a7.62,7.62,0,0,1-6.58,2.77L417.83,331l-14-93.68Z"/><path class="cls-9" d="M298.58,198s-25.41,8-31.74,14.9l20.8,96.76-.37,30.54H407.75c0-1.51,1.08-101.38,1.08-101.38l7.23-39.19-42.79-7.53-8.44-6.64-47.63,2.42L310,195.06Z"/><g class="cls-10"><path d="M308.27,281.9c-.37-.82-.91-1.71-1.79-1.89-1.45-.3-2.42,1.41-2.91,2.81a127.39,127.39,0,0,1-15.82,30.89l-.31,14.86c7-5.91,13.94-12.24,18.42-20.25S312,290.26,308.27,281.9Z"/></g><path class="cls-9" d="M266.84,212.85s-8.37,11.41-11.84,18.86-32.28,70-34,76.47S214.8,335,228,339.71H255l27.16-54.93L283.57,221Z"/><path class="cls-7" d="M256.73,300a12,12,0,0,0-1.85-1.24,20.9,20.9,0,0,0-5.68-2.06,27.5,27.5,0,0,0-4.14-.58,16.41,16.41,0,0,0-4.79.34,17.62,17.62,0,0,0-9.11,5.72A24.85,24.85,0,0,0,226,311.8a47.54,47.54,0,0,0-1.62,8.85c-.26,2.56-.35,4.65-.44,6.08,0,.68-.08,1.23-.1,1.66a2.25,2.25,0,0,1-.08.58,5.61,5.61,0,0,1,0-.58v-1.66c0-1.45.06-3.53.27-6.11a45.78,45.78,0,0,1,1.53-9,24.83,24.83,0,0,1,5.23-9.8,18,18,0,0,1,9.4-5.84,16.65,16.65,0,0,1,4.88-.27,25.89,25.89,0,0,1,4.19.65,19.86,19.86,0,0,1,5.7,2.24,9.43,9.43,0,0,1,1.35,1A2.85,2.85,0,0,1,256.73,300Z"/><path class="cls-7" d="M243.9,289.09a3.52,3.52,0,0,1,.91-.14,15,15,0,0,1,2.51,0,20.94,20.94,0,0,1,3.69.55,22,22,0,0,1,8.21,3.92,20.5,20.5,0,0,1,2.75,2.52,15.72,15.72,0,0,1,1.55,2,3.33,3.33,0,0,1,.46.8c-.08.06-.82-1-2.28-2.52a25.27,25.27,0,0,0-2.77-2.39,24.85,24.85,0,0,0-3.84-2.3,26.07,26.07,0,0,0-4.2-1.54,24.46,24.46,0,0,0-3.6-.64C245.21,289.08,243.9,289.19,243.9,289.09Z"/><path class="cls-7" d="M268.36,286.08a5.23,5.23,0,0,1-1.25-.09c-.8-.1-1.95-.22-3.39-.33a57.84,57.84,0,0,0-22.13,2.65c-1.37.44-2.47.83-3.22,1.12a6.14,6.14,0,0,1-1.19.39,5.1,5.1,0,0,1,1.11-.58c.73-.35,1.82-.79,3.18-1.28a51,51,0,0,1,22.29-2.66c1.43.15,2.59.32,3.38.49A6.56,6.56,0,0,1,268.36,286.08Z"/><path class="cls-7" d="M345.45,232.63a1.75,1.75,0,0,1-.28-.33l-.74-1-2.72-3.76c-2.33-3.3-5.59-7.9-9.42-13.3l.42-.06c-1.46,4.28-3.07,9-4.76,14l-.11.31-.28-.18L327,228a28.75,28.75,0,0,1-5.89-5,34.9,34.9,0,0,1-4.21-5.82A49.15,49.15,0,0,1,312.27,206a77.54,77.54,0,0,1-1.75-8c-.16-.9-.28-1.63-.38-2.18a3.39,3.39,0,0,0-.13-.55A.47.47,0,0,0,310,195a15.19,15.19,0,0,1,.77,2.89,79,79,0,0,0,1.91,7.9,49.43,49.43,0,0,0,4.69,11.06,35.47,35.47,0,0,0,4.17,5.72,28.13,28.13,0,0,0,5.78,4.88l.55.36-.38.14c1.71-5,3.33-9.69,4.81-14l.15-.44.27.38c3.76,5.45,7,10.09,9.27,13.41,1.09,1.62,2,2.91,2.61,3.85l.67,1A2.64,2.64,0,0,1,345.45,232.63Z"/><g class="cls-10"><path d="M376.8,278.82a54.84,54.84,0,0,0,7,32.46c5.6,9.74,13.82,18.43,24.05,23.09.33-9.93-.15-21.63.18-31.56Z"/></g><path class="cls-12" d="M375.67,265.75s-4.38,1.21-1.1,10.18,4.38,8.42,6.57,16.8,4.74,16,8.56,20.78,18.05,14.4,18.05,14.4l12.76-12s-2.1-9-1.6-15.06,1.78-21,1.6-23.59-2.92-8.75-2.92-8.75v-4.24L411,244.09s-3.65-1.64-4.92,4.19l-2.19-6.19s-3.46-.55-4.37,6.56.73,17,.73,17L398.45,278l-2.73,8.39-2.37.36s-3.57-1-5.52-7.69S380.59,264.29,375.67,265.75Z"/><path class="cls-13" d="M416.27,297.49a2.59,2.59,0,0,0-.06-.45,12.64,12.64,0,0,1-.09-1.34c-.07-1.22-.16-2.91-.27-5-.2-4.35-.47-10.41-.79-17.48l.05.15a2.58,2.58,0,0,0-2.58-.68,3.79,3.79,0,0,0-2.36,1.74c-1.12,1.79-1.18,4.13-1.53,6.38-.69,5.11-1.35,10-1.95,14.41-.3,2.22-.62,4.32-1.05,6.27a39.21,39.21,0,0,1-1.59,5.32,42.9,42.9,0,0,0-1.37,4.33,13.54,13.54,0,0,0-.41,3.35,10.73,10.73,0,0,0,.5,2.86,4.34,4.34,0,0,1-.3-.7,7.5,7.5,0,0,1-.4-2.15,12.52,12.52,0,0,1,.33-3.45,39.35,39.35,0,0,1,1.31-4.38,40.8,40.8,0,0,0,1.5-5.29c.41-1.93.72-4,1-6.24.58-4.44,1.23-9.3,1.91-14.42.16-1.13.28-2.26.48-3.38a8.79,8.79,0,0,1,1.12-3.21,4.29,4.29,0,0,1,2.69-1.94,3,3,0,0,1,3.07.84l0,.07v.08c.25,7.07.46,13.13.61,17.49,0,2.11.09,3.8.13,5V297A1.93,1.93,0,0,1,416.27,297.49Z"/><path class="cls-13" d="M409.27,274.49a5,5,0,0,1-.54-1.14,28.88,28.88,0,0,1-1.07-3.26,33.82,33.82,0,0,1-.91-5,15,15,0,0,1-.06-3,6.48,6.48,0,0,1,1.1-3.12,4.48,4.48,0,0,1,2.34-1.76l.19,0,.1.17c1.85,3.26,3.46,6.14,4.58,8.21l1.31,2.45a4,4,0,0,1,.42.92,4.41,4.41,0,0,1-.58-.83l-1.44-2.37c-1.2-2-2.87-4.87-4.73-8.12l.29.12a4,4,0,0,0-2,1.56,6,6,0,0,0-1,2.88,14.44,14.44,0,0,0,0,2.94,36.88,36.88,0,0,0,.79,5c.32,1.4.67,2.52.9,3.29A5.53,5.53,0,0,1,409.27,274.49Z"/><path class="cls-13" d="M406.21,276.13a4.61,4.61,0,0,1-.12-1.17c0-.86-.08-1.92-.13-3.17-.08-2.68-.17-6.38-.22-10.47a89.54,89.54,0,0,1,.16-10.49,16.71,16.71,0,0,1,.68-3.12,3.85,3.85,0,0,1,.47-1.08,29,29,0,0,0-.79,4.24c-.25,2.65,0,6.35,0,10.44s.08,7.79.07,10.47V275A5.74,5.74,0,0,1,406.21,276.13Z"/><path class="cls-13" d="M395.42,309.74c-.07-.06.73-1,1.71-2.71a24,24,0,0,0,1.49-3.11,26,26,0,0,0,1.14-4.06,25.69,25.69,0,0,0,.35-4.2,24.55,24.55,0,0,0-.3-3.43c-.33-2-.75-3.11-.66-3.14a2.83,2.83,0,0,1,.36.79,14.88,14.88,0,0,1,.66,2.28,19.57,19.57,0,0,1,.42,3.49,20.57,20.57,0,0,1-1.53,8.45,19.18,19.18,0,0,1-1.61,3.12,14.6,14.6,0,0,1-1.41,1.9C395.67,309.54,395.45,309.76,395.42,309.74Z"/><path class="cls-12" d="M417.82,303.49l11.07,3.84s10.58-5.47,17.87,0,13.62,19.88,11.62,25.71c0,0-5,6.22-8.86,7.13s-18.71-2.7-24.9-4-16.87-8.24-16.87-8.24Z"/><path class="cls-13" d="M419.18,319.78a4.21,4.21,0,0,1-.12-1c0-.75-.09-1.64-.15-2.68-.12-2.26-.27-5.38-.32-8.84s.05-6.59.25-8.85c.1-1.13.23-2,.34-2.67a3.16,3.16,0,0,1,.23-1c.08,0-.09,1.4-.2,3.66s-.15,5.37-.1,8.82.12,6.43.16,8.83v2.68A3.1,3.1,0,0,1,419.18,319.78Z"/><path class="cls-7" d="M455.69,306.87a36.16,36.16,0,0,0-3.68-3.32,20.27,20.27,0,0,0-22.44-1.23,36.6,36.6,0,0,0-4,2.89,5.75,5.75,0,0,1,.91-1,18.06,18.06,0,0,1,2.93-2.22,19.91,19.91,0,0,1,22.86,1.27,18.19,18.19,0,0,1,2.66,2.53A5.83,5.83,0,0,1,455.69,306.87Z"/><path class="cls-7" d="M454.27,297.64a22,22,0,0,0-4.61-2.54,20.4,20.4,0,0,0-12.46-.37,28.91,28.91,0,0,0-6.45,2.68,30.51,30.51,0,0,0-4.67,3.3c-1.24,1.06-2.19,2-2.84,2.63a8.28,8.28,0,0,1-1.05,1,6.9,6.9,0,0,1,.9-1.12,34.22,34.22,0,0,1,2.75-2.77,28.47,28.47,0,0,1,4.67-3.43,28,28,0,0,1,6.55-2.77,19.93,19.93,0,0,1,12.74.53,14.87,14.87,0,0,1,3.41,1.92c.37.27.62.53.81.69A1.1,1.1,0,0,1,454.27,297.64Z"/><path class="cls-7" d="M454.36,289.64c0,.1-2-.49-5.18-.92a41.31,41.31,0,0,0-5.67-.36,44.74,44.74,0,0,0-6.93.62,45.66,45.66,0,0,0-6.73,1.78,40.89,40.89,0,0,0-5.21,2.28c-2.87,1.5-4.49,2.72-4.55,2.63a7.28,7.28,0,0,1,1.11-.88,12.78,12.78,0,0,1,1.37-.94c.55-.35,1.17-.76,1.89-1.14a38.6,38.6,0,0,1,5.23-2.4,40.9,40.9,0,0,1,6.8-1.84,42,42,0,0,1,7-.59,38,38,0,0,1,5.73.47c.81.1,1.53.29,2.16.42a14.81,14.81,0,0,1,1.62.42A8,8,0,0,1,454.36,289.64Z"/><path class="cls-7" d="M369.53,191.72a9.31,9.31,0,0,1,.76,2.94,28.15,28.15,0,0,1-.42,8.59,49.37,49.37,0,0,1-1.43,6,46.15,46.15,0,0,1-2.9,6.65c-2.39,4.6-5.39,9.61-8.87,15l-.4.63V219.68l.39.19-9.39,7.49.08-.12a97.89,97.89,0,0,0-4.08,22.45c-.92,12.17-.18,23.81.39,34.37s.82,20.09,1.15,28.09.6,14.46.84,18.93c.14,2.22.24,3.94.31,5.14,0,.57.07,1,.09,1.34a2.45,2.45,0,0,1,0,.46,2.24,2.24,0,0,0-.07-.45c-.07-.3-.08-.77-.14-1.34-.11-1.17-.25-2.9-.4-5.14-.3-4.46-.65-10.93-1-18.93s-.78-17.51-1.26-28.08-1.35-22.22-.43-34.43a97.9,97.9,0,0,1,4.19-22.57V227H347l9.36-7.51.39-.32v11.6l-.41-.13c6.87-10.65,12.46-19.91,13.32-27.4a29.37,29.37,0,0,0,.54-8.52,15.22,15.22,0,0,0-.41-2.22A8,8,0,0,1,369.53,191.72Z"/><path class="cls-11" d="M351.59,320.71h-.32a2.81,2.81,0,1,0,.36,0Z"/><path class="cls-11" d="M351.59,282.17h-.32a2.8,2.8,0,1,0,.36,0Z"/><path class="cls-11" d="M351.27,247.69a2.82,2.82,0,0,0,.37-5.63h-.37a2.82,2.82,0,0,0,0,5.64Z"/><path class="cls-7" d="M308,146.56c-3.5-3.89-7-7.81-9.59-12.37s-4.08-9.89-3.24-15c.5-3,1.78-5.9,2-9,.28-4.2-1.48-8.59,0-12.52,2.32-6.16,10.61-7.11,15.63-11.36,3.91-3.31,5.81-8.68,10.11-11.46,3.76-2.44,8.59-2.38,13-1.76s8.89,1.75,13.33,1.15c3.16-.42,6.14-1.7,9.23-2.47s6.56-1,9.31.64,4.31,5.51,2.5,8.14c5.14-2.37,11.67,1.64,13.08,7.12s-1.41,11.41-5.77,15-10,5.3-15.55,6.35c-15.74,3-32.83,1.29-46.4-7.23"/><path class="cls-12" d="M363.41,199.49c-.77-6-1.4-10.93-1.44-11.55,0,0,19.92-4.48,18.82-24.62-.53-9.74-3.25-29.7-5.93-47.73a37.56,37.56,0,0,0-39.68-32l-2,.12c-20.85,2.63-30.28,21.81-27.08,42.59L317.36,196s4.8,15.41,15.07,18.08l13,18.52,2.14-8,9.66-8.42a38.44,38.44,0,0,0,4.77-7.09A15.58,15.58,0,0,0,363.41,199.49Z"/><path class="cls-13" d="M362,187.66s-12.65,1.88-26.74-5.71c0,0,7.18,14.07,27.14,10.92Z"/><path class="cls-7" d="M368.39,132.91a2.89,2.89,0,0,1-2.58,3.09,2.75,2.75,0,0,1-3.12-2.32s0-.05,0-.08a2.87,2.87,0,0,1,2.59-3.11,2.75,2.75,0,0,1,3.11,2.34S368.39,132.88,368.39,132.91Z"/><path class="cls-7" d="M371.2,125.77c-.33.4-2.62-1.07-5.71-.85s-5.22,1.91-5.62,1.57c-.17-.15.15-.85,1.09-1.64a7.81,7.81,0,0,1,4.46-1.71,7.54,7.54,0,0,1,4.58,1.15C371,124.93,371.36,125.59,371.2,125.77Z"/><path class="cls-7" d="M339.17,135a2.86,2.86,0,0,1-2.58,3.08,2.74,2.74,0,0,1-3.12-2.3s0-.06,0-.09A2.89,2.89,0,0,1,336,132.6a2.76,2.76,0,0,1,3.13,2.33S339.17,135,339.17,135Z"/><path class="cls-7" d="M340.84,128.38c-.34.4-2.62-1.07-5.71-.85s-5.26,1.91-5.62,1.55c-.18-.15.14-.85,1.08-1.64a7.94,7.94,0,0,1,4.47-1.71,7.51,7.51,0,0,1,4.57,1.15C340.63,127.54,341,128.2,340.84,128.38Z"/><path class="cls-7" d="M353.59,150.57c0-.18,1.88-.64,5-1.25.78-.13,1.52-.34,1.62-.88a4,4,0,0,0-.69-2.31l-2.74-5.86c-3.81-8.34-6.63-15.23-6.29-15.38s3.7,6.49,7.52,14.84l2.64,5.9a4.6,4.6,0,0,1,.62,3.07,2,2,0,0,1-1.22,1.24,5.53,5.53,0,0,1-1.33.28C355.56,150.6,353.62,150.74,353.59,150.57Z"/><path class="cls-7" d="M340.82,116.2c-.25.87-3.36.67-7,1.35s-6.47,1.87-7,1.15c-.24-.35.22-1.17,1.35-2.07a12.36,12.36,0,0,1,10.63-1.9C340.21,115.18,340.93,115.8,340.82,116.2Z"/><path class="cls-7" d="M369.46,116.89c-.49.74-2.67.16-5.24.29s-4.7.79-5.25.09c-.24-.34.06-1.07,1-1.8a7.61,7.61,0,0,1,8.45-.3C369.34,115.83,369.68,116.49,369.46,116.89Z"/><path class="cls-12" d="M308.79,141.15c-.35-.12-14.1-3.16-12.74,10.57s16.22,9.25,16.22,8.86S308.79,141.15,308.79,141.15Z"/><path class="cls-13" d="M306.19,156.07c-.07,0-.22.19-.61.41a2.4,2.4,0,0,1-1.78.22c-1.51-.39-3-2.57-3.27-5a7.94,7.94,0,0,1,.33-3.49,2.79,2.79,0,0,1,1.62-2,1.23,1.23,0,0,1,1.48.52c.22.37.16.65.23.66s.27-.25.11-.81a1.53,1.53,0,0,0-.63-.81,1.82,1.82,0,0,0-1.4-.28,3.38,3.38,0,0,0-2.28,2.38,8.14,8.14,0,0,0-.45,3.91c.36,2.76,2,5.21,4.07,5.58a2.57,2.57,0,0,0,2.16-.58C306.2,156.4,306.27,156.09,306.19,156.07Z"/><path class="cls-7" d="M373.85,96.84c-.94,5.47-12,10.48-21.22,10.21-8.47-.25-12.66-4.45-18.81-7.44-3.9-1.89-3.9-1.89-9.19-1-4.27.69-6.49,5.74-8.89,9.34,4.57,10,2.72,21.56.78,32.36a5.42,5.42,0,0,1-1.39,3.28c-1.54,1.36-4,.55-5.56-.84-2.43-2.23-3.54-5.53-4.33-8.73a56.44,56.44,0,0,1-1.36-22.33,38.69,38.69,0,0,1,9.28-20.2,36.67,36.67,0,0,1,25-11.39,45,45,0,0,1,26.62,7.56,26.79,26.79,0,0,1,9.1,9.17"/><path class="cls-13" d="M355.62,157.49l-7-3.26a2.25,2.25,0,0,0-1.27-.32,2,2,0,0,0-1.21.82,6.48,6.48,0,0,0-.78,7.15,5.48,5.48,0,0,0,6.57,2.42c2.48-1,3.68-3.91,3.88-6.59Z"/><path class="cls-7" d="M352.15,164.82c0,.06-.33.26-1,.41a6.12,6.12,0,0,1-3-.22,6.27,6.27,0,0,1-3.47-2.89,6.41,6.41,0,0,1-.43-5.52,6.73,6.73,0,0,1,1.62-2.45,6.32,6.32,0,0,1,1.14-.86,1.79,1.79,0,0,1,.81-.25,1.88,1.88,0,0,1,.81.15c.37.19.74.4,1.09.62l.95.59,1.71,1.06c2.07,1.32,3.32,2.2,3.25,2.32s-1.45-.52-3.62-1.68l-1.77-1-1-.55c-.34-.17-.7-.4-1-.52a.74.74,0,0,0-.77.08,5.37,5.37,0,0,0-.92.73,6,6,0,0,0-1.36,2.08,5.62,5.62,0,0,0,.3,4.69,5.76,5.76,0,0,0,2.89,2.66,7,7,0,0,0,2.71.51C351.75,164.81,352.12,164.75,352.15,164.82Z"/><path class="cls-7" d="M349.94,133.26a24.22,24.22,0,0,0-.55-3.48,14.19,14.19,0,0,0-17.28-10.18c-.44.12-.88.25-1.31.41a13.56,13.56,0,0,0-3.57,1.93,12.94,12.94,0,0,0-3,3,14,14,0,0,0,0,16.65,12.94,12.94,0,0,0,3,3,13.56,13.56,0,0,0,3.57,1.93A14.22,14.22,0,0,0,349,138c.14-.4.27-.81.38-1.23a23.87,23.87,0,0,0,.55-3.47.89.89,0,0,1,0,.23v.68a5.93,5.93,0,0,1-.08,1.11,12.38,12.38,0,0,1-.27,1.5,13.82,13.82,0,0,1-1.55,3.87,14.48,14.48,0,0,1-17.41,6.3,13.61,13.61,0,0,1-3.69-2,13.77,13.77,0,0,1-3.1-3.09,14.51,14.51,0,0,1,0-17.25,13.33,13.33,0,0,1,3.09-3.09,13.61,13.61,0,0,1,3.69-2,14.48,14.48,0,0,1,17.41,6.3,13.82,13.82,0,0,1,1.55,3.87,12.38,12.38,0,0,1,.27,1.5,5.93,5.93,0,0,1,.08,1.11V133A.76.76,0,0,1,349.94,133.26Z"/><path class="cls-7" d="M384.18,131.91a26,26,0,0,0-.53-3.39,14,14,0,0,0-5.1-7.57,13.47,13.47,0,0,0-5.8-2.55,13.86,13.86,0,0,0-7.22.61,13.54,13.54,0,0,0-3.47,1.87,13.39,13.39,0,0,0-2.9,2.92,13.68,13.68,0,0,0,0,16.22,12.92,12.92,0,0,0,2.9,2.91,13.27,13.27,0,0,0,3.47,1.88,13.86,13.86,0,0,0,7.22.61,13.47,13.47,0,0,0,5.8-2.55,14,14,0,0,0,5.1-7.57,26,26,0,0,0,.53-3.39,13.54,13.54,0,0,1-.08,2,10.39,10.39,0,0,1-.26,1.46,14.09,14.09,0,0,1-11,10.5,14.19,14.19,0,1,1,0-27.88,14.09,14.09,0,0,1,11,10.5,10.39,10.39,0,0,1,.26,1.46,13.54,13.54,0,0,1,.08,2Z"/><path class="cls-7" d="M356.27,128.75c-.06.05-.39-.22-1-.51a5.78,5.78,0,0,0-2.52-.55,5.42,5.42,0,0,0-2.49.64c-.6.31-.92.6-1,.54s.18-.44.78-.86a4.89,4.89,0,0,1,5.38-.09A2.31,2.31,0,0,1,356.27,128.75Z"/><path class="cls-7" d="M322.12,131.22a62.62,62.62,0,0,1-6.26,5,63.47,63.47,0,0,1-6.58,4.59,61.62,61.62,0,0,1,6.27-5A62.29,62.29,0,0,1,322.12,131.22Z"/><g class="cls-10"><path d="M310.27,196.3c-1.39,13.57,3.77,27.9,14.66,36.12.85.65,1.92,1.29,2.93.92a3.24,3.24,0,0,0,1.52-1.56,26.55,26.55,0,0,0,3.24-17.44c-1.72,4.54-3.2,9-4.94,13.74C318.21,222.32,312.27,210.08,310.27,196.3Z"/></g><path class="cls-14" d="M347.14,227.16l8-2.92,1.32,13.51s8.62-15.71,12.19-22.87,1.73-19.82,1.73-19.82,1.27,11-7.36,25.07l-6.52,10.6v-11.1Z"/><g class="cls-10"><path d="M254.27,295.82a21.32,21.32,0,0,0-11.57-1.45,22.24,22.24,0,0,0-11.52,4.36c-3.24,2.61-5.43,6.73-5,10.87l.4,0c2.79-7.54,8.33-13,15.48-13.69s14.12,2.51,19,7.76C260.53,299.8,257.79,297.49,254.27,295.82Z"/></g><g class="cls-10"><path d="M456.21,303.49a18.27,18.27,0,0,0-10.32-5.31,23.14,23.14,0,0,0-19.24,5.57l1.52-1.24A24.33,24.33,0,0,1,441,299a18.51,18.51,0,0,1,12.21,4.88c3,2.84,4.79,6.69,6.5,10.44A13.06,13.06,0,0,0,456.21,303.49Z"/></g><path class="cls-7" d="M404.72,240.79a5.16,5.16,0,0,1,.36-1.09c.31-.79.69-1.76,1.13-2.91,1-2.45,2.3-5.83,3.7-9.6s2.61-7.2,3.48-9.68l1-2.95a5.16,5.16,0,0,1,.44-1.06,4.32,4.32,0,0,1-.25,1.12c-.19.72-.49,1.74-.88,3-.78,2.52-1.94,6-3.34,9.75s-2.79,7.15-3.85,9.56c-.52,1.21-1,2.18-1.29,2.85A4.14,4.14,0,0,1,404.72,240.79Z"/><path class="cls-7" d="M278.65,241.77c-.14,0-1.23-4.73-2.43-10.63s-2.06-10.65-2-10.73,1.22,4.73,2.42,10.63S278.79,241.74,278.65,241.77Z"/><path class="cls-12" d="M276.76,301.26c.32.16-3.66-31.16-3.66-31.16s2.51-23.77,3.92-24.87v-8.39s3.89-2.35,4.93,1.45c0,0,3.45-3,4,4.13s.73,14.41.73,14.41L294.35,276l1.26.64s1.65-15,2.61-17.24,1.62-7.59,5.25-6.78,3.94,3.81,3.29,8.71-1.47,10-1.16,13.14,1.74,10.13,1.3,15.67-3.48,11.38-6.66,15.48-9.27,12.59-12.57,15.14C286.6,321.67,276.76,301.26,276.76,301.26Z"/><path class="cls-13" d="M280.64,275.77a6,6,0,0,1,0-1.34c.06-1,.15-2.18.25-3.64.23-3.07.59-7.31,1-12,.22-2.33.43-4.55.62-6.59a12.18,12.18,0,0,0,0-2.83,4.07,4.07,0,0,0-1-2.16,4.28,4.28,0,0,0-3.13-1.37,8.23,8.23,0,0,0-1.31.16,1.37,1.37,0,0,1,.32-.16,3.43,3.43,0,0,1,1-.21A4.4,4.4,0,0,1,281.8,247a4.33,4.33,0,0,1,1.11,2.35,11.06,11.06,0,0,1,0,2.93c-.18,2-.38,4.27-.58,6.6-.43,4.68-.85,8.91-1.18,12l-.41,3.63A8,8,0,0,1,280.64,275.77Z"/><path class="cls-13" d="M284.76,263a10.62,10.62,0,0,0-1.36,2.47,42,42,0,0,0-1.27,6.76c-.42,2.68-.82,5.1-1.14,6.85a15,15,0,0,1-.62,2.81,16.3,16.3,0,0,1,.26-2.87c.22-1.76.57-4.19,1-6.87a31.39,31.39,0,0,1,1.45-6.81,6.42,6.42,0,0,1,1.09-1.81C284.5,263.09,284.74,262.94,284.76,263Z"/><path class="cls-13" d="M281.94,237.88a3.53,3.53,0,0,1,.27,1c.14.64.31,1.57.5,2.73.38,2.31.8,5.52,1.07,9.09s.32,6.81.28,9.15c0,1.17-.05,2.12-.1,2.77a3.38,3.38,0,0,1-.12,1,34.13,34.13,0,0,1-.15-3.78c-.05-2.34-.17-5.56-.43-9.11s-.62-6.76-.91-9.08A31.94,31.94,0,0,1,281.94,237.88Z"/><path class="cls-13" d="M304.07,267.24a2.75,2.75,0,0,1-2.58.22c-1.47-.44-2.15-1.57-2-1.62a13.49,13.49,0,0,0,2.17,1.12A15,15,0,0,0,304.07,267.24Z"/><path class="cls-12" d="M277.19,297.36l-20.26,8.52H244.85s-11.94,3.73-13.78,14.93-2.1,16.95,3.15,18.34,20.08,1.54,27.43-.9,26.61-18,26.61-18L290.11,309Z"/><path class="cls-13" d="M281.94,309.74a5.36,5.36,0,0,1-.58-.53,12.61,12.61,0,0,1-1.31-1.68,22.84,22.84,0,0,1-2.83-6.41,37.35,37.35,0,0,1-1.25-6.88,13.39,13.39,0,0,1-.08-2.9,19.63,19.63,0,0,1,.44,2.85,50.77,50.77,0,0,0,1.39,6.79,26.8,26.8,0,0,0,2.64,6.36C281.27,308.85,282,309.67,281.94,309.74Z"/><path class="cls-13" d="M290.77,313.29a21,21,0,0,0,1.15-4.34,14,14,0,0,0-2.72-10.18c-1.23-1.72-2.62-3.22-3.79-4.68a22,22,0,0,1-2.74-4.14,10.93,10.93,0,0,1-1-3.2,4.16,4.16,0,0,1,0-1.22,14.21,14.21,0,0,0,1.38,4.25,23.11,23.11,0,0,0,2.79,4c1.17,1.42,2.57,2.92,3.83,4.68A14.45,14.45,0,0,1,292.2,304a14.24,14.24,0,0,1,.13,5,13.33,13.33,0,0,1-.92,3.22c-.16.36-.31.63-.41.81S290.78,313.3,290.77,313.29Z"/><path class="cls-11" d="M259.52,264.49a99.44,99.44,0,0,1-4.94-9,99.17,99.17,0,0,1-4.48-9.23,99.44,99.44,0,0,1,4.94,9A99.36,99.36,0,0,1,259.52,264.49Z"/><path class="cls-11" d="M292.27,228a61.68,61.68,0,0,1,3.05-7.5,63.42,63.42,0,0,1,3.53-7.28,65.07,65.07,0,0,1-3.05,7.5A63.42,63.42,0,0,1,292.27,228Z"/><path class="cls-11" d="M324.4,251.68a45.75,45.75,0,0,1-4.6-5.14,47.17,47.17,0,0,1-4.19-5.47,43.89,43.89,0,0,1,4.59,5.14A46.41,46.41,0,0,1,324.4,251.68Z"/><path class="cls-11" d="M317,284.25a39.34,39.34,0,0,1,3.46-5.22,38.31,38.31,0,0,1,3.89-4.91,38.7,38.7,0,0,1-3.46,5.22A36.17,36.17,0,0,1,317,284.25Z"/><path class="cls-11" d="M307.07,330.26a9.78,9.78,0,0,1-1.17-2c-.66-1.28-1.51-3.07-2.37-5.08s-1.55-3.88-2-5.23a10.24,10.24,0,0,1-.64-2.24,10.2,10.2,0,0,1,1,2.11L304,323c.83,1.91,1.57,3.64,2.22,5.13A10.41,10.41,0,0,1,307.07,330.26Z"/><path class="cls-11" d="M335.27,310.7a37.69,37.69,0,0,1-6.07-.91,36.35,36.35,0,0,1-6-1.42,73.11,73.11,0,0,1,12,2.33Z"/><path class="cls-11" d="M357.27,267.71a72.66,72.66,0,0,1,5.78-6.62,76.31,76.31,0,0,1,6.18-6.28,75.9,75.9,0,0,1-5.79,6.63A74.5,74.5,0,0,1,357.27,267.71Z"/><path class="cls-11" d="M379.27,325c-.11.1-3.34-3.65-7.22-8.35s-6.93-8.6-6.82-8.69,3.34,3.65,7.22,8.35S379.36,325,379.27,325Z"/><path class="cls-11" d="M242.47,300.61c.07.14-2.88,1.64-6.1,4.11s-5.46,4.91-5.58,4.8a7,7,0,0,1,1.36-1.7,31.84,31.84,0,0,1,8.32-6.33A7.3,7.3,0,0,1,242.47,300.61Z"/><path class="cls-11" d="M250.71,278.49a21.4,21.4,0,0,1-2.35,4,21.14,21.14,0,0,1-2.79,3.72,22,22,0,0,1,2.35-4A20.66,20.66,0,0,1,250.71,278.49Z"/><path class="cls-11" d="M269.27,300.21a13.19,13.19,0,0,1-1.94-8.55c.15,0,.2,2,.75,4.33S269.41,300.14,269.27,300.21Z"/><path class="cls-11" d="M272,231.29a15.36,15.36,0,0,1-3.85.81,14.8,14.8,0,0,1-3.93.29,15.43,15.43,0,0,1,3.86-.81A15.19,15.19,0,0,1,272,231.29Z"/><path class="cls-11" d="M286,206.56a30.7,30.7,0,0,1-7,3.88,15.15,15.15,0,0,1,3.37-2.17A15.65,15.65,0,0,1,286,206.56Z"/><path class="cls-11" d="M325.17,217a37.25,37.25,0,0,1-3.86-4.64,36.75,36.75,0,0,1-3.44-5A69.3,69.3,0,0,1,325.17,217Z"/><path class="cls-11" d="M374.94,241.87a24.49,24.49,0,0,1-6.05-9.72c.15-.06,1.22,2.27,2.9,4.94S375.06,241.77,374.94,241.87Z"/><path class="cls-11" d="M393.94,248.13a58.51,58.51,0,0,1-4.6,10.13,31.16,31.16,0,0,1,2.07-5.17A29,29,0,0,1,393.94,248.13Z"/><path class="cls-11" d="M396.6,222.2a54.25,54.25,0,0,1-5.06-5.66,55,55,0,0,1-4.65-6A111.54,111.54,0,0,1,396.6,222.2Z"/><path class="cls-11" d="M367.58,201.14a23.14,23.14,0,0,1-.45-4.84,22.66,22.66,0,0,1,.07-4.87,23.14,23.14,0,0,1,.45,4.84A22,22,0,0,1,367.58,201.14Z"/><path class="cls-11" d="M391.27,199.83a75.13,75.13,0,0,1-12.42,1.66,75.13,75.13,0,0,1,12.42-1.66Z"/><path class="cls-11" d="M428.5,227.2a62.78,62.78,0,0,1-3.72-7.08,61.08,61.08,0,0,1-3.24-7.31,62.85,62.85,0,0,1,3.73,7.08A62.66,62.66,0,0,1,428.5,227.2Z"/><path class="cls-11" d="M422.27,250.85a64.77,64.77,0,0,1,2.26-11.28,32.2,32.2,0,0,1-.87,5.69A31.73,31.73,0,0,1,422.27,250.85Z"/><path class="cls-11" d="M439.51,269.49a62.32,62.32,0,0,1-3-7.68A63.39,63.39,0,0,1,434,254a66.53,66.53,0,0,1,3,7.69A65,65,0,0,1,439.51,269.49Z"/><path class="cls-11" d="M437.1,280.4a13.79,13.79,0,0,1-5.05-1.81,13.29,13.29,0,0,1-4.27-3.24c.1-.12,1.94,1.4,4.52,2.78S437.15,280.25,437.1,280.4Z"/><path class="cls-11" d="M459.27,305.26a28.5,28.5,0,0,1-3.11-7A28.5,28.5,0,0,1,459.27,305.26Z"/><path class="cls-11" d="M328.48,339.94a19.6,19.6,0,0,1-.78-4.43,20.46,20.46,0,0,1-.26-4.49,18.37,18.37,0,0,1,.83,4.47A19.49,19.49,0,0,1,328.48,339.94Z"/><path class="cls-11" d="M396.41,338.22a18.66,18.66,0,0,1,.65-4.33,19.29,19.29,0,0,1,1.17-4.22,37.44,37.44,0,0,1-1.82,8.55Z"/></g><g id="Speech_Bubble" data-name="Speech Bubble" class="cls-2"><path class="cls-6" d="M409.43,139.93l8.84-15.44a41.46,41.46,0,1,1,9.93,11h0Z"/><path class="cls-7" d="M409.43,139.93l18.77-4.28h.19l-.12-.16h0l-.18.17a42.91,42.91,0,0,0,8.52,5.14A41.26,41.26,0,0,0,448,144a37.86,37.86,0,0,0,6.56.33c1.13-.06,2.27-.09,3.43-.18l3.5-.53A41.77,41.77,0,0,0,494.35,111a42.46,42.46,0,0,0-.49-18.43,40.94,40.94,0,0,0-8.88-17l-1.71-2c-.56-.63-1.22-1.14-1.82-1.72a16.24,16.24,0,0,0-1.88-1.64l-2-1.48a16.67,16.67,0,0,0-2.06-1.36l-2.1-1.28-2.2-1.07a20.08,20.08,0,0,0-2.22-1,42.5,42.5,0,0,0-18.57-2.85,40.82,40.82,0,0,0-17,5,42,42,0,0,0-19.69,24.23,44.77,44.77,0,0,0-1.8,13.47,41.07,41.07,0,0,0,2,11.63,42.06,42.06,0,0,0,4.15,8.92v-.13c-5.54,9.93-8.25,14.78-8.68,15.54.44-.75,3.22-5.57,8.89-15.42v-.12a42.09,42.09,0,0,1-4-8.89,40.82,40.82,0,0,1-2-11.55A44.63,44.63,0,0,1,414.1,90.6a41.7,41.7,0,0,1,19.51-23.9,40.27,40.27,0,0,1,16.85-5,41.91,41.91,0,0,1,18.34,2.83,19.64,19.64,0,0,1,2.19,1l2.18,1.06,2.1,1.3a17,17,0,0,1,2,1.34l2,1.47c.67.48,1.23,1.08,1.85,1.62a19.26,19.26,0,0,1,1.8,1.7l1.67,1.83a40.47,40.47,0,0,1,8.78,16.83,41.72,41.72,0,0,1,.49,18.2,40.75,40.75,0,0,1-6.9,15.83,41.37,41.37,0,0,1-25.58,16.49l-3.46.54c-1.15.09-2.28.13-3.4.19a37.16,37.16,0,0,1-6.5-.3,41.11,41.11,0,0,1-11.3-3.14,42.34,42.34,0,0,1-8.49-5.06l-.77-.59.59.77h0l.07-.2Z"/><path class="cls-7" d="M464.67,101a4,4,0,1,0,0-.1Z"/><path class="cls-7" d="M448.48,101a4,4,0,1,0,0-.05Z"/><path class="cls-7" d="M432.33,99a4,4,0,1,0,0-.07Z"/></g></g></svg>